<?xml version="1.0" encoding="UTF-8"?>
<svg width="1440px" height="433px" viewBox="0 0 1440 433" version="1.1" xmlns="http://www.w3.org/2000/svg" xmlns:xlink="http://www.w3.org/1999/xlink">
    <!-- Generator: Sketch 60.1 (88133) - https://sketch.com -->
    <title>Group 2</title>
    <desc>Created with Sketch.</desc>
    <defs>
        <rect id="path-1" x="0" y="0" width="1440" height="433"></rect>
        <path d="M927.853112,0.988834376 C923.053091,2.45013308 918.585147,5.19132788 915.837965,9.40389931 C913.815315,12.5179772 913.825378,15.7328344 915.022867,18.5748084 C914.751168,18.5546526 914.479469,18.5546526 914.207769,18.5546526 C912.798958,18.5546526 911.380084,18.7259772 910.061839,19.0585487 C906.247986,20.0159513 902.746084,22.4951201 901.518406,26.3549642 L901.437902,26.7177694 C897.151091,24.1176655 892.341007,22.5656655 887.188783,22.5656655 C885.769909,22.5656655 884.320846,22.6866006 882.851657,22.9284707 C874.006336,24.3998474 862.957231,34.1250422 866.922028,43.7998474 C870.051601,51.4288344 880.798818,55.5607824 888.37621,56.2561591 C889.281874,56.3367824 890.207664,56.3770941 891.15358,56.3770941 C896.32593,56.3770941 902.102056,55.1677435 907.626608,53.1320032 C911.853042,60.9423928 922.841769,64.1975616 932.039294,64.1975616 C933.065713,64.1975616 934.072007,64.15725 935.038049,64.0766266 C941.649399,63.5324188 951.52114,59.9950681 958.353874,54.3816655 C963.143832,58.463224 968.879706,60.9625487 975.088538,60.9625487 C978.308678,60.9625487 981.659636,60.2873279 985.081035,58.8159513 C988.874762,57.163172 991.581692,54.6134578 992.91,51.1768863 C994.952776,51.7815616 997.156559,52.0637435 999.370406,52.0637435 C1003.19432,52.0637435 1007.01824,51.2272759 1009.99687,49.796211 C1014.00192,47.8814058 1021.15666,41.8346526 1015.80318,37.249198 C1013.57927,35.3545487 1010.41951,34.8607305 1007.22956,34.8607305 C1006.64591,34.8607305 1006.06226,34.8808863 1005.47861,34.9111201 C1007.15912,31.4443149 1007.04843,27.5441591 1003.91885,23.7649383 C999.722608,18.7259772 992.91,17.2747565 986.379154,17.2747565 C984.225685,17.2747565 982.102406,17.4360032 980.109944,17.6778733 C974.595455,18.3329383 969.654552,20.5903928 965.428119,23.8455616 C965.246986,22.3439513 964.88472,20.8725746 964.230629,19.5120552 C962.057035,14.8963668 957.880916,13.1125746 953.30228,13.1125746 C953.101021,13.1125746 952.909825,13.1125746 952.708566,13.1226526 C952.487182,11.5605746 952.084664,10.0488863 951.390322,8.65813308 C949.49849,4.8789123 946.489671,2.35943178 942.937455,0.988834376 L1439,0.988834376 L1439,26.7480032 C1434.29055,20.4694578 1426.71315,18.2926266 1419.17601,18.2926266 C1417.12317,18.2926266 1415.07034,18.4538733 1413.08794,18.7360552 C1403.26651,20.1469642 1393.20357,25.6998993 1387.45764,33.8428603 C1386.17964,35.6468084 1385.38467,37.6321591 1385.02241,39.6477435 C1379.63873,35.7475876 1372.14185,34.3366785 1365.75188,34.3366785 L1365.49024,34.3366785 L1365.49024,34.3366785 C1355.33674,34.3870681 1342.54675,37.9445746 1337.78698,47.8007824 C1336.46873,50.5520552 1336.2876,53.5250422 1336.95176,56.2460811 C1334.78822,54.8553279 1332.3228,54.2103409 1329.83726,54.2103409 C1326.50643,54.2103409 1323.15547,55.3793798 1320.47873,57.4957435 C1319.86489,56.0646785 1319.07998,54.6436915 1318.10387,53.2428603 C1313.00197,45.8960552 1303.05978,44.0820292 1294.22452,44.0820292 C1292.08112,44.0820292 1290.00815,44.1828084 1288.07607,44.3440552 C1276.87602,45.2611461 1249.83691,54.4824448 1246.73752,68.0977175 C1245.76142,67.2914837 1244.67462,66.6263409 1243.47713,66.1829123 C1242.57147,65.8503409 1241.64568,65.699172 1240.71989,65.699172 C1236.22176,65.699172 1231.89469,69.3574578 1231.10978,73.8925227 L1231.04941,74.4064967 C1226.82297,73.7917435 1222.55629,73.4390162 1218.31979,73.4390162 C1204.67445,73.4390162 1191.40143,77.0670681 1181.03661,87.1147565 C1171.78877,96.1143409 1176.26678,106.031016 1186.33978,111.463016 C1198.3348,117.94312 1213.38895,120.049406 1226.81291,120.845562 C1228.11103,120.926185 1229.40915,120.956419 1230.70727,120.956419 C1240.50857,120.956419 1250.44069,118.920679 1259.86966,116.713614 C1261.06715,116.44151 1262.29483,116.139172 1263.54263,115.836834 C1269.16781,123.949562 1285.00687,125.904679 1293.87232,125.985302 C1294.30503,125.985302 1294.73773,125.99538 1295.1805,125.99538 C1306.11892,125.99538 1320.32778,124.433302 1331.88003,119.424575 C1339.53793,127.144263 1351.09018,130.671536 1362.11916,130.671536 L1362.26004,130.671536 L1362.26004,130.671536 C1370.27014,130.65138 1380.09157,127.769094 1387.41738,122.367328 C1394.5822,126.559743 1403.65897,128.313302 1411.98101,128.313302 C1414.94958,128.313302 1417.81752,128.091588 1420.47413,127.678393 C1426.96473,126.670601 1433.19369,124.775951 1439,121.87351 L1439,367.452315 C1438.69811,367.432159 1438.40629,367.422081 1438.1044,367.422081 C1435.95093,367.422081 1433.88803,368.026756 1432.05657,369.064782 C1433.18362,362.262185 1425.70686,358.271328 1420.17224,357.455016 C1419.06532,357.293769 1417.8779,357.203068 1416.65022,357.203068 C1412.11183,357.203068 1407.09043,358.402341 1403.96085,361.395484 C1402.10927,363.169198 1401.53569,365.114237 1401.83757,366.908107 C1401.3948,366.837562 1400.9621,366.807328 1400.53945,366.807328 C1398.66775,366.807328 1396.87655,367.452315 1395.32685,368.510497 C1394.68283,367.381769 1393.89792,366.353821 1392.99225,365.567743 C1390.09413,363.028107 1386.82367,361.707899 1383.46265,361.355172 C1382.14441,356.840263 1378.42112,353.292834 1374.4362,350.69273 C1369.61605,347.558497 1363.77955,346.03673 1357.93298,346.03673 C1354.51158,346.03673 1351.08012,346.560782 1347.83985,347.58873 C1347.24614,346.369302 1346.49142,345.200263 1345.56563,344.121925 C1342.1241,340.181458 1337.05238,338.518601 1331.9706,338.518601 C1329.64606,338.518601 1327.31146,338.86125 1325.13787,339.506237 C1323.07497,340.12099 1321.1932,341.038081 1319.40199,342.15673 C1302.03336,345.11964 1290.20941,359.500834 1290.66224,377.792263 C1290.89369,387.45699 1295.40189,398.189977 1304.64973,402.281614 C1306.00822,402.886289 1307.43716,403.148315 1308.88622,403.148315 C1309.96296,403.148315 1311.06988,403.007224 1312.16674,402.745198 L1312.29756,402.78551 C1314.2699,404.347588 1316.78563,405.254601 1319.38187,405.254601 C1320.29759,405.254601 1321.22338,405.133666 1322.13911,404.901873 C1324.81585,404.196419 1326.86869,402.372315 1328.08631,400.064471 C1335.43225,405.294912 1345.95808,406.877146 1354.87385,406.877146 C1356.20215,406.877146 1357.51034,406.836834 1358.74808,406.776367 C1365.38962,406.42364 1371.46763,404.418133 1376.95193,400.669146 L1378.13936,399.792367 C1382.38592,402.301769 1387.90041,403.390185 1392.70043,403.390185 C1393.82748,403.390185 1394.90421,403.329717 1395.93063,403.21886 C1398.95957,402.876211 1402.13946,401.66686 1404.25268,399.399328 C1408.48917,402.281614 1414.52694,403.370029 1419.69929,403.370029 C1421.35967,403.370029 1422.93955,403.259172 1424.3383,403.057614 C1429.66159,402.271536 1435.25659,399.348938 1439,395.166601 L1439,431.336263 C1432.51947,429.340834 1425.29428,428.141562 1417.19362,428.141562 C1411.47787,428.141562 1405.31935,428.736159 1398.66775,430.076523 C1349.29898,440.013354 1345.83733,492.227068 1345.83733,492.227068 C1345.83733,492.227068 1336.33792,478.954445 1317.86236,478.954445 C1314.04851,478.954445 1309.85227,479.518808 1305.27363,480.889406 C1274.81916,489.978432 1276.54497,517.059307 1276.6503,518.40767 L1276.57645,518.131772 C1275.80352,515.027743 1269.0542,490.895482 1245.51991,488.538549 C1243.33625,488.326912 1241.28341,488.226133 1239.37145,488.226133 C1220.82788,488.226133 1214.46399,497.557902 1213.56445,499.050985 L1213.47952,499.190912 L1214.35668,497.212064 C1226.63456,468.191911 1207.87286,448.287328 1189.19765,448.287328 C1183.9448,448.287328 1178.69194,449.869562 1174.1435,453.265821 C1156.12078,466.729925 1162.48055,491.773562 1163.34597,494.83725 L1163.44659,495.159743 C1163.44659,495.159743 1148.41257,471.154133 1121.18226,471.154133 C1116.90551,471.154133 1112.33694,471.74873 1107.47654,473.10925 C1071.62229,483.187172 1071.62229,512.473614 1071.62229,512.473614 C1071.62229,512.473614 1071.54179,511.647224 1071.29022,510.286705 C1070.19336,504.381042 1065.66503,488.447847 1048.98069,486.653977 C1047.69263,486.512886 1046.45489,486.452419 1045.26746,486.452419 C1044.61337,486.452419 1043.96934,486.472575 1043.34544,486.502808 C1032.60954,487.098036 1026.26047,492.724351 1024.78739,494.180975 L1024.568,494.403899 L1026.35163,492.356809 C1030.91051,486.780636 1033.68837,480.501966 1035.00327,474.016263 C1041.92657,446.705094 1026.43971,415.524003 995.455923,415.524003 C993.775413,415.524003 992.05465,415.614705 990.27351,415.806185 C955.073357,419.162133 951.712336,456.047328 951.69221,456.107795 C951.631832,456.017094 933.105965,435.347276 904.778797,434.974393 L903.973762,434.974393 L903.973762,434.974393 C896.235364,434.974393 887.802622,436.496159 878.81642,440.356003 C849.613776,452.913094 842.589846,479.861458 841.06028,495.482237 C840.428637,502.031336 840.748745,506.596813 840.801731,507.260443 L840.798643,507.293562 L840.351573,505.410039 C836.563562,490.560432 826.267762,475.358726 810.066434,471.930133 C807.852587,471.456471 805.538112,471.214601 803.102881,471.214601 C802.881497,471.214601 802.660112,471.214601 802.438727,471.224679 C781.709077,471.637873 768.909021,485.484938 768.888895,485.505094 L768.888895,485.495016 C768.858706,485.333769 753.985685,426.085666 703.238294,426.085666 C695.972853,426.085666 687.972818,427.295016 679.167748,430.076523 C632.204021,444.88099 628.229161,507.434653 628.229161,507.434653 C628.229161,507.434653 618.166224,475.941146 583.569846,474.893042 C582.885566,474.872886 582.221413,474.862808 581.557259,474.862808 C544.425021,474.862808 537.441343,506.809821 537.441343,506.809821 C526.543182,476.243484 491.715357,447.561717 457.501371,447.561717 C452.238455,447.561717 446.995664,448.236938 441.843441,449.698237 C403.26214,460.612627 399.075958,498.414912 399.075958,498.414912 C390.633154,495.593094 382.975259,494.494601 376.192839,494.494601 C352.665692,494.494601 339.543622,507.646289 339.543622,507.646289 C355.714762,470.630081 330.175028,429.371068 293.425182,429.371068 C290.154727,429.371068 286.783643,429.70364 283.352182,430.388938 C241.419923,438.793925 240.584699,495.048886 240.584699,495.048886 C240.584699,495.048886 220.92172,460.038185 182.269979,460.038185 C179.452357,460.038185 176.534105,460.219588 173.505161,460.622705 C129.057168,466.508211 121.308706,507.343951 121.308706,507.343951 C117.937622,491.904575 107.462105,475.507795 90.5664336,471.930133 C88.3525874,471.456471 86.0381119,471.214601 83.6028811,471.214601 C83.3814965,471.214601 83.1601119,471.214601 82.9387273,471.224679 C62.2090769,471.637873 49.409021,485.484938 49.3888951,485.505094 L49.3888951,485.495016 C49.3587063,485.353925 38.6618042,443.268523 0,431.336263 L0,395.166601 C1.26793007,393.745614 2.32453846,392.173458 3.09938462,390.500523 C8.65412587,393.251795 15.3057273,394.743328 21.0214755,394.743328 L21.2428601,394.743328 L21.2428601,394.743328 C24.5233776,394.723172 27.8944615,393.90686 30.1888112,391.538549 L31.2051678,390.470289 L31.9196364,389.140003 C34.9687063,390.480367 38.2894755,391.427692 41.1775385,392.304471 C46.8027203,394.037873 52.770042,394.874341 58.6266713,395.418549 C61.9675664,395.741042 65.3285874,395.872055 68.6996713,395.872055 C71.1852168,395.872055 73.6707622,395.80151 76.1361818,395.680575 C80.7148182,395.468938 85.2632657,395.529406 89.1777483,392.909146 C90.4356154,392.062601 90.8683217,389.895847 89.8217762,388.726808 C86.1890559,384.69564 80.584,383.617302 74.7474965,383.617302 C73.5600699,383.617302 72.3625804,383.667692 71.1650909,383.738237 C70.1185455,374.940211 45.0115175,369.568679 30.1888112,368.550808 C28.4479231,368.429873 26.8479161,368.369406 25.4491678,368.369406 C23.8592238,368.369406 22.5208531,368.450029 21.5246224,368.611276 C15.9598182,369.528367 11.6025664,372.017614 11.1698601,372.017614 C11.1597972,372.017614 11.1497343,372.007536 11.1396713,372.007536 C8.12079021,369.699692 4.26668531,368.137614 1.05660839,367.593406 C0.704405594,367.52286 0.352202797,367.482549 0,367.452315 L0,121.87351 C2.22390909,120.75486 4.38744056,119.49512 6.49059441,118.074133 C7.60758042,117.298133 8.84532168,116.370964 10.0629371,115.383328 L10.4252028,115.111224 C20.8604685,117.711328 31.6378741,118.759432 42.4756573,118.759432 C55.4065315,118.759432 68.427972,117.267899 81.067021,115.171692 C97.540049,112.430497 115.240755,108.318705 129.439559,99.1377175 C142.531441,90.6521071 145.218245,74.3964188 131.019441,65.2355876 C122.667203,59.8338214 111.024385,59.491172 101.444469,59.3400032 L100.236916,59.3097694 C91.462035,48.1232759 73.2682448,42.0563668 56.3725734,42.0563668 C42.2945245,42.0563668 29.1221399,46.2689383 23.0541888,55.2685227 C21.2428601,50.8947045 18.1233497,47.1054058 13.7157832,44.8076396 C12.5283566,44.1828084 11.3006783,43.8200032 10.0629371,43.4672759 C8.41261538,43.0339253 6.74216783,42.7416655 5.07172028,42.7416655 C4.87046154,42.7416655 4.67926573,42.7416655 4.47800699,42.7517435 C4.89058741,37.5213019 3.57234266,32.0187565 0.603776224,27.5844707 C0.402517483,27.3022889 0.201258741,27.0201071 0,26.7480032 L0,0.988834376 L927.853112,0.988834376 Z M308.781224,245.801717 C307.714552,245.801717 306.637818,245.862185 305.551021,245.993198 C297.70193,246.930445 289.490573,250.498029 285.032692,257.310705 C282.637713,260.999224 282.657839,264.818756 284.06665,268.184782 L283.14086,268.164627 L283.14086,268.164627 C281.450287,268.164627 279.769776,268.366185 278.179832,268.759224 C273.65151,269.908107 269.495517,272.85086 268.046455,277.426237 L267.955888,277.859588 C262.864042,274.765666 257.138231,272.931484 251.019965,272.931484 C249.339455,272.931484 247.618692,273.072575 245.887867,273.364834 C235.392224,275.108315 222.260091,286.647536 226.979608,298.136367 C230.682769,307.206497 243.442573,312.104367 252.448902,312.940834 C253.515573,313.031536 254.612434,313.081925 255.72942,313.081925 C261.877874,313.081925 268.740797,311.640782 275.301832,309.232159 C280.313175,318.493769 293.364804,322.363692 304.283091,322.363692 C305.500706,322.363692 306.698196,322.313302 307.845371,322.222601 C315.694462,321.567536 327.40772,317.37512 335.52851,310.713614 C341.21407,315.551016 348.016615,318.513925 355.392748,318.513925 C359.216664,318.513925 363.191524,317.717769 367.246888,315.964211 C371.755084,314.009094 374.975224,310.97564 376.555105,306.904159 C378.97021,307.629769 381.596636,307.962341 384.213,307.962341 C388.761448,307.962341 393.309895,306.964627 396.852049,305.271536 C401.591692,302.983847 410.094874,295.808367 403.745161,290.366289 C401.098608,288.118912 397.33507,287.534393 393.551406,287.534393 C392.857063,287.534393 392.16272,287.554549 391.478441,287.584782 C393.470902,283.47299 393.350147,278.847224 389.62686,274.352471 C384.635643,268.376263 376.545042,266.652938 368.786517,266.652938 C366.240594,266.652938 363.714797,266.844419 361.36007,267.126601 C354.809098,267.912679 348.952469,270.593406 343.941126,274.45325 C343.699615,272.669458 343.276972,270.925977 342.502126,269.31351 C339.926014,263.821042 334.975049,261.704679 329.531,261.704679 C329.28949,261.704679 329.058042,261.704679 328.826594,261.714756 C328.564958,259.870497 328.092,258.066549 327.256776,256.423847 C323.613993,249.147588 316.499497,245.801717 308.781224,245.801717 Z M1037.39824,249.218133 C1033.22213,249.218133 1029.08626,250.487951 1026.02713,253.521406 C1025.1114,254.448575 1024.33655,255.466445 1023.69252,256.55486 C1020.07993,255.093562 1016.13526,254.347795 1012.22078,254.347795 C1007.59183,254.347795 1002.983,255.395899 998.977951,257.592886 C995.113783,259.719328 991.440811,262.732627 989.931371,266.804107 C986.801797,266.88473 983.702413,267.892523 980.844538,270.03912 C979.979126,270.704263 979.174091,271.581042 978.499874,272.60899 C977.020622,271.409717 975.239483,270.653873 973.337587,270.653873 C973.096077,270.653873 972.854566,270.663951 972.613056,270.684107 C972.995448,269.041406 972.613056,267.207224 971.033175,265.453666 C967.963979,262.047328 962.489741,260.646497 957.880916,260.646497 C957.357643,260.646497 956.844434,260.666653 956.35135,260.696886 C951.199126,261.069769 944.014189,264.234237 944.597839,270.593406 C942.766385,269.353821 940.633042,268.628211 938.348755,268.628211 C938.006615,268.628211 937.664476,268.648367 937.322336,268.678601 C934.333643,268.960782 930.670734,270.139899 927.722294,272.064782 L927.712231,272.064782 C927.370091,272.064782 923.485797,269.464679 918.404014,268.225094 C916.612811,267.801821 913.603993,267.570029 909.951147,267.570029 C896.15486,267.570029 873.150986,270.81512 871.581168,278.776679 C869.56858,278.504575 867.535867,278.313094 865.553469,278.313094 C861.176091,278.313094 857.070413,279.230185 854.071657,282.092315 C853.015049,283.100107 853.276685,285.135847 854.373545,285.982393 C857.794944,288.66312 861.991189,288.945302 866.197497,289.459276 C870.987455,290.033717 875.817664,290.426756 880.637811,290.426756 C881.221462,290.426756 881.795049,290.416679 882.378699,290.406601 C887.812685,290.285666 893.347301,289.92286 898.680657,288.71351 C901.39765,288.108834 904.497035,287.443692 907.42535,286.425821 L907.978811,287.715795 C909.780077,290.910497 913.402734,292.039224 916.854322,292.341562 C917.699608,292.412107 918.575084,292.442341 919.470685,292.442341 C924.160014,292.442341 929.362552,291.484938 933.880811,289.660834 C936.235538,295.969614 942.88714,300.988419 949.407923,302.449717 C951.370196,302.883068 953.734986,303.145094 956.210469,303.145094 C960.336273,303.145094 964.774028,302.399328 968.175301,300.444211 C969.956441,302.68151 972.804252,304.031951 975.551434,304.535847 C977.161503,304.828107 978.952706,304.999432 980.804287,304.999432 C984.658392,304.999432 988.794259,304.283899 992.205594,302.590808 L993.242077,303.477666 C998.032035,307.317354 1003.50627,309.584886 1009.61448,310.350808 C1012.26103,310.693458 1015.17928,310.905094 1018.1881,310.905094 C1025.15165,310.905094 1032.60829,309.746133 1038.34416,306.279328 C1039.29008,308.476315 1041.05109,310.300419 1043.49638,311.146964 C1044.56306,311.509769 1045.65992,311.681094 1046.74671,311.681094 C1048.88006,311.681094 1050.98321,311.026029 1052.69391,309.85699 L1052.82473,309.836834 C1054.07253,310.239951 1055.3304,310.461666 1056.5782,310.461666 C1057.65494,310.461666 1058.73167,310.290341 1059.77822,309.917458 C1068.58329,306.773146 1073.48394,297.189042 1074.34935,288.310393 C1076.0198,271.460107 1066.09774,257.401406 1050.29893,253.491172 C1048.71905,252.332211 1047.02848,251.354653 1045.18696,250.659276 C1042.75173,249.742185 1040.06492,249.218133 1037.39824,249.218133 Z M554.900538,73.4188603 C548.832587,73.4188603 542.905517,77.0166785 539.403615,81.9246266 C538.125622,83.7084188 537.119329,86.1674318 536.706748,88.6466006 C535.016175,88.0721591 533.275287,87.7899772 531.564587,87.7899772 C526.392238,87.7899772 521.421147,90.2590681 518.603524,94.3003149 C517.567042,91.4885746 515.715462,88.9489383 512.827399,86.8829642 C507.141839,82.7913279 499.051238,81.8540811 491.695231,81.8540811 C489.541762,81.8540811 487.438608,81.9347045 485.486399,82.0455616 C477.425986,82.4789123 450.527755,89.110185 453.979343,100.457925 C452.510154,100.115276 451.051028,99.8834837 449.642217,99.8834837 L449.511399,99.8834837 L449.511399,99.8834837 C444.328986,99.8834837 441.551615,102.90686 440.907587,106.484523 C438.100028,106.202341 435.26228,106.051172 432.414469,106.051172 C419.996804,106.051172 407.528825,108.832679 396.902364,114.748419 C383.750105,122.075068 384.273378,134.924419 395.96651,143.268938 C402.426916,147.884627 410.839531,149.839743 418.457175,151.55299 C429.154077,153.961614 439.891231,155.624471 450.869895,155.815951 C451.443483,155.826029 452.01707,155.826029 452.60072,155.826029 C466.558014,155.826029 480.937951,153.014289 494.975748,149.114133 C496.253741,156.430705 513.018594,160.804523 518.45258,161.620834 C523.222413,162.336367 529.109231,162.890653 535.287874,162.890653 C546.870315,162.890653 559.459049,160.925458 567.579839,154.354653 C574.684273,157.126081 582.674245,158.355588 590.301951,158.355588 C593.200077,158.355588 596.037825,158.174185 598.754818,157.841614 C603.494462,157.257094 609.582538,155.372523 614.815266,152.308834 C617.934776,153.749977 621.30586,154.515899 624.687007,154.515899 C628.953692,154.515899 633.230441,153.306549 637.06442,150.736679 C638.885811,149.497094 640.69714,147.743536 642.246832,145.667484 C648.888371,146.665198 655.479594,147.098549 662.080881,147.098549 C671.32872,147.098549 680.596685,146.252003 690.045783,144.921717 C698.659657,143.712367 729.905077,140.678912 727.590601,129.069146 C725.386818,118.023743 705.180441,115.363172 696.023168,114.466237 L693.799259,114.294912 C705.834531,111.412627 706.931392,98.7144448 692.108685,94.4716396 C677.25579,90.2187565 667.877133,89.2512759 656.224252,88.8179253 C651.776434,88.6566785 647.600315,88.5357435 643.464448,88.5357435 C632.274462,88.5357435 621.336049,89.4125227 605.869315,92.5568344 C604.259245,89.8458733 601.542252,87.5682629 597.577455,86.1674318 C594.588762,85.1193279 591.278056,84.6154318 587.876783,84.6154318 C581.637762,84.6154318 575.076727,86.2984448 569.622615,89.3621331 C569.763497,82.6905487 566.835182,76.9662889 560.233895,74.4064967 C558.482944,73.721198 556.681678,73.4188603 554.900538,73.4188603 Z" id="path-3"></path>
        <linearGradient x1="50%" y1="0%" x2="50%" y2="100%" id="linearGradient-5">
            <stop stop-color="#60ACFF" offset="0%"></stop>
            <stop stop-color="#C6E3FF" offset="100%"></stop>
        </linearGradient>
        <path d="M995.455923,0.92544 C1026.43971,0.92544 1041.92657,32.11296 1035.00327,59.42976 C1033.68837,65.9168 1030.91051,72.1967644 1026.35163,77.7740879 L1024.568,79.8216 L1024.78739,79.5986292 C1026.26047,78.141705 1032.60954,72.51423 1043.34544,71.91888 C1043.96934,71.88864 1044.61337,71.86848 1045.26746,71.86848 C1046.45489,71.86848 1047.69263,71.92896 1048.98069,72.07008 C1065.66503,73.86432 1070.19336,89.8008 1071.29022,95.70768 C1071.54179,97.06848 1071.62229,97.89504 1071.62229,97.89504 L1071.62591,97.7098129 C1071.69986,95.2117211 1073.28993,68.1337228 1107.47654,58.52256 C1112.33694,57.16176 1116.90551,56.56704 1121.18226,56.56704 C1148.41257,56.56704 1163.44659,80.5776 1163.44659,80.5776 L1163.34597,80.25504 C1162.48055,77.19072 1156.12078,52.14192 1174.1435,38.67504 C1178.69194,35.27808 1183.9448,33.69552 1189.19765,33.69552 C1207.87286,33.69552 1226.63456,53.6042073 1214.35668,82.6303434 L1213.47952,84.6096 L1213.56445,84.4696438 C1214.46399,82.9762529 1220.82788,73.64256 1239.37145,73.64256 C1241.28341,73.64256 1243.33625,73.74336 1245.51991,73.95504 C1269.0542,76.3124594 1275.80352,100.449696 1276.57645,103.554365 L1276.65464,103.88256 C1276.65464,103.88256 1274.03827,75.62832 1305.27363,66.30432 C1309.85227,64.93344 1314.04851,64.36896 1317.86236,64.36896 C1336.33792,64.36896 1345.83733,77.64432 1345.83733,77.64432 C1345.83733,77.64432 1349.29898,25.41984 1398.66775,15.48096 C1405.31935,14.14032 1411.47787,13.5456 1417.19362,13.5456 C1425.29428,13.5456 1432.51947,14.74512 1439,16.74096 L1439,143.85984 C1436.78615,143.38608 1434.47168,143.14416 1432.04651,143.14416 C1431.82513,143.14416 1431.59368,143.14416 1431.37229,143.15424 C1410.64264,143.56752 1397.84259,157.41744 1397.82246,157.4376 L1397.82246,157.42752 C1397.79227,157.26624 1383.46265,100.00176 1327.1102,100.00176 C1321.24351,100.00176 1314.91392,100.62672 1308.10131,101.9976 C1258.73255,111.93648 1255.2709,164.16096 1255.2709,164.16096 C1255.2709,164.16096 1245.76142,150.8856 1227.29593,150.8856 C1223.48208,150.8856 1219.28583,151.45008 1214.7072,152.82096 C1184.25272,161.91186 1185.97855,188.998319 1186.08387,190.34696 L1186.01001,190.071005 C1185.23709,186.966336 1178.48777,162.8291 1154.95348,160.47168 C1152.76982,160.26 1150.71698,160.1592 1148.80502,160.1592 C1130.26144,160.1592 1123.89756,169.492893 1122.99802,170.986284 L1122.91308,171.12624 L1123.79025,169.146984 C1136.06813,140.120847 1117.30643,120.21216 1098.63122,120.21216 C1093.37836,120.21216 1088.12551,121.79472 1083.57706,125.19168 C1065.55434,138.65856 1071.91412,163.70736 1072.77953,166.77168 L1072.88016,167.09424 C1072.88016,167.09424 1057.84613,143.08368 1030.61583,143.08368 C1026.33908,143.08368 1021.7705,143.6784 1016.9101,145.0392 C981.05586,155.1192 981.05586,184.41168 981.05586,184.41168 C981.05586,184.41168 980.975357,183.58512 980.723783,182.22432 C979.626923,176.31744 975.098601,160.38096 958.414252,158.58672 C957.126196,158.4456 955.888455,158.38512 954.701028,158.38512 C954.046937,158.38512 953.402909,158.40528 952.779007,158.43552 C942.043111,159.03087 935.694027,164.658344 934.220959,166.115269 L934.001566,166.33824 L935.785205,164.290728 C940.344198,158.713404 943.123059,152.43344 944.446895,145.9464 C951.360133,118.6296 935.873273,87.44208 904.88949,87.44208 C903.208979,87.44208 901.488217,87.5328 899.707077,87.72432 C864.506923,91.08096 861.145902,127.97376 861.125776,128.03424 C861.065399,127.94352 842.539531,107.26944 814.212364,106.89648 L813.417392,106.89648 L813.417392,106.89648 C805.66893,106.89648 797.236189,108.41856 788.249986,112.2792 C759.047343,124.83888 752.023413,151.7928 750.493846,167.4168 C749.862204,173.96725 750.182312,178.533668 750.235297,179.197434 L750.23221,179.23056 L749.78514,177.346649 C745.997128,162.49398 735.701329,147.28914 719.5,143.85984 C717.286154,143.38608 714.971678,143.14416 712.54651,143.14416 C712.325126,143.14416 712.093678,143.14416 711.872294,143.15424 C691.142643,143.56752 678.342587,157.41744 678.322462,157.4376 L678.322462,157.42752 C678.292273,157.26624 663.419252,98.00592 612.67186,98.00592 C605.396357,98.00592 597.406385,99.21552 588.601315,101.9976 C541.637587,116.80512 537.662727,179.37168 537.662727,179.37168 C537.662727,179.37168 527.59979,147.87168 493.003413,146.82336 C492.319133,146.8032 491.654979,146.79312 490.990825,146.79312 C453.858587,146.79312 446.874909,178.74672 446.874909,178.74672 C435.976748,148.17408 401.148923,119.4864 366.934937,119.4864 C361.672021,119.4864 356.419168,120.16176 351.277007,121.62336 C312.695706,132.54 308.509524,170.35008 308.509524,170.35008 C300.06672,167.52768 292.408825,166.42896 285.626406,166.42896 C262.099259,166.42896 248.977189,179.58336 248.977189,179.58336 C265.148329,142.55952 239.608594,101.292 202.858748,101.292 C199.588294,101.292 196.21721,101.62464 192.785748,102.31008 C150.85349,110.7168 150.018266,166.98336 150.018266,166.98336 C150.018266,166.98336 130.355287,131.96544 91.7035455,131.96544 C88.8859231,131.96544 85.9676713,132.14688 82.9387273,132.55008 C38.4907343,138.4368 30.7422727,179.28096 30.7422727,179.28096 C27.3711888,163.8384 16.8956713,147.43824 0,143.85984 L0,16.74096 C38.6618042,28.67568 49.3587063,70.76976 49.3888951,70.91088 L49.3888951,70.92096 C49.409021,70.9008 62.2090769,57.05088 82.9387273,56.6376 C83.1601119,56.62752 83.3814965,56.62752 83.6028811,56.62752 C86.0381119,56.62752 88.3525874,56.86944 90.5664336,57.3432 C106.758119,60.7725 117.053517,75.97734 120.850368,90.8300092 L121.308706,92.74416 C121.655041,91.0420957 130.00287,51.7949107 173.505161,46.03344 C176.534105,45.63024 179.452357,45.4488 182.269979,45.4488 C220.92172,45.4488 240.584699,80.46672 240.584699,80.46672 L240.591285,80.2033046 C240.717272,76.0419709 243.097213,23.8638912 283.352182,15.79344 C286.783643,15.108 290.154727,14.77536 293.425182,14.77536 C330.175028,14.77536 355.714762,56.04288 339.543622,93.06672 C339.543622,93.06672 352.665692,79.91232 376.192839,79.91232 C382.975259,79.91232 390.633154,81.01104 399.075958,83.83344 C399.075958,83.83344 403.26214,46.02336 441.843441,35.10672 C446.995664,33.64512 452.238455,32.96976 457.501371,32.96976 C491.715357,32.96976 526.543182,61.65744 537.441343,92.23008 C537.441343,92.23008 544.425021,60.27648 581.557259,60.27648 C582.221413,60.27648 582.885566,60.28656 583.569846,60.30672 C618.166224,61.35504 628.229161,92.85504 628.229161,92.85504 C628.229161,92.85504 632.204021,30.28848 679.167748,15.48096 C687.972818,12.69888 695.972853,11.48928 703.238294,11.48928 C753.985685,11.48928 768.858706,70.7496 768.888895,70.91088 L768.888895,70.92096 C768.909021,70.9008 781.709077,57.05088 802.438727,56.6376 C802.660112,56.62752 802.881497,56.62752 803.102881,56.62752 C805.538112,56.62752 807.852587,56.86944 810.066434,57.3432 C826.267762,60.7725 836.563562,75.97734 840.351573,90.8300092 L840.798643,92.71392 C840.748745,92.0170282 840.428637,87.4506092 841.06028,80.90016 C842.589846,65.27616 849.613776,38.32224 878.81642,25.76256 C887.802622,21.90192 896.235364,20.37984 903.973762,20.37984 L904.778797,20.37984 L904.778797,20.37984 C933.105965,20.7528 951.631832,41.42688 951.69221,41.5176 C951.712336,41.45712 955.073357,4.56432 990.27351,1.20768 C992.05465,1.01616 993.775413,0.92544 995.455923,0.92544 Z" id="path-6"></path>
        <path d="M194.917438,61.8828132 C193.827197,61.8828132 192.726862,61.7148681 191.656811,61.3592198 C189.20377,60.5293736 187.437176,58.7412527 186.488263,56.5876044 C180.734216,59.986022 173.253955,61.1221209 166.26834,61.1221209 C163.249988,61.1221209 160.322491,60.9146593 157.667553,60.5787692 C151.539998,59.827956 146.048416,57.6051538 141.243282,53.8412088 L140.203515,52.9718462 C136.781371,54.6315385 132.632401,55.332956 128.766085,55.332956 C126.908638,55.332956 125.11176,55.165011 123.496589,54.8785165 C120.740703,54.3845604 117.883869,53.0607582 116.097086,50.8675934 C112.685037,52.7841429 108.233222,53.5151978 104.094346,53.5151978 C101.61102,53.5151978 99.2387373,53.2583407 97.2702475,52.8335385 C90.7288043,51.4010659 84.0561286,46.4812637 81.6939408,40.2969341 C77.1613668,42.0850549 71.9423451,43.0235714 67.2381591,43.0235714 C66.3397202,43.0235714 65.4614709,42.9939341 64.613506,42.9247802 C61.1509829,42.6284066 57.5168478,41.5219451 55.7098751,38.3902637 L55.15466,37.1257363 C52.2170675,38.1235275 49.1078631,38.7755495 46.3822618,39.3682967 C41.0320074,40.5537912 35.4798566,40.9094396 30.028654,41.027989 C29.4431545,41.0378681 28.8677498,41.0477473 28.2822502,41.0477473 C23.4468316,41.0477473 18.6013182,40.6624615 13.7961841,40.0993516 C9.57654949,39.5955165 5.36700971,39.3189011 1.93477105,36.6910549 C0.834435708,35.8612088 0.571970398,33.8656264 1.63192646,32.8777143 C4.6401827,30.072044 8.7588691,29.173044 13.1501156,29.173044 C15.1387951,29.173044 17.1779487,29.3607473 19.1969126,29.6274835 C20.7717044,21.822978 43.8484621,18.6419011 57.6884598,18.6419011 C61.3528793,18.6419011 64.3712303,18.8691209 66.1681082,19.284044 C71.2659921,20.4991758 75.1625925,23.047989 75.5058164,23.047989 L75.5159112,23.047989 C78.4736933,21.1610769 82.1482077,20.0052198 85.1463691,19.7286044 C85.489593,19.698967 85.8328168,19.6792088 86.1760407,19.6792088 C88.4675648,19.6792088 90.6076665,20.3905055 92.4449237,21.6056374 C91.8594241,15.3719121 99.0671253,12.2698681 104.235673,11.9043407 C104.730319,11.8747033 105.245155,11.8549451 105.770086,11.8549451 C110.393513,11.8549451 115.885095,13.2281429 118.964015,16.5672857 C120.548901,18.2862527 120.932505,20.0842527 120.548901,21.6945495 C120.791177,21.6747912 121.033453,21.6649121 121.275728,21.6649121 C123.183649,21.6649121 124.970432,22.4058462 126.454371,23.5814615 C127.130724,22.5737912 127.938309,21.7143077 128.806464,21.0622857 C131.673393,18.958033 134.782597,17.9701209 137.922086,17.8910879 C139.436309,13.8999231 143.120918,10.9460659 146.997329,8.86157143 C151.015067,6.70792308 155.638494,5.68049451 160.282111,5.68049451 C164.208996,5.68049451 168.166166,6.41154945 171.790206,7.84402198 C172.436274,6.77707692 173.213575,5.77928571 174.132204,4.87040659 C177.201029,1.89679121 181.35,0.652021978 185.53935,0.652021978 C188.214477,0.652021978 190.909794,1.16573626 193.352741,2.06473626 C195.200093,2.7463956 196.896022,3.70467033 198.480909,4.84076923 C214.329776,8.67386813 224.283268,22.4552418 222.607528,38.9731319 C221.739373,47.6766374 216.823196,57.0716813 207.990229,60.153967 C206.940368,60.5194945 205.860222,60.6874396 204.780076,60.6874396 C203.528319,60.6874396 202.266466,60.4700989 201.014709,60.0749341 L200.883476,60.0946923 C199.167357,61.2406703 197.057539,61.8828132 194.917438,61.8828132" id="path-8"></path>
        <path d="M148.493792,89.7605263 C142.315417,89.7605263 136.428854,89.2073421 131.659229,88.4932316 C126.225479,87.6785421 109.461354,83.3134158 108.183417,76.0113842 C94.1462292,79.9037895 79.7669167,82.7099421 65.8102292,82.7099421 C65.2266042,82.7099421 64.6530417,82.7099421 64.0794792,82.6998842 C53.1012917,82.5087842 42.3646042,80.8492316 31.6681667,78.4453947 C24.0508542,76.7355526 15.6386042,74.7843211 9.17847917,70.1778053 C-2.51414583,61.8498684 -3.03739583,49.0260526 10.1142917,41.7139632 C20.7402917,35.8099789 33.2077292,33.034 45.6248542,33.034 C48.4725417,33.034 51.3101667,33.1848684 54.1176042,33.4664895 C54.7616042,29.8959368 57.5388542,26.8785684 62.7210417,26.8785684 C62.7612917,26.8785684 62.8116042,26.8785684 62.8518542,26.8785684 C64.2606042,26.8785684 65.7196667,27.1099 67.1887917,27.4518684 C63.7373542,16.1266789 90.6344167,9.50858421 98.6944792,9.07609474 C100.646604,8.96545789 102.749667,8.88499474 104.903042,8.88499474 C112.258729,8.88499474 120.348979,9.82037895 126.034292,13.9038842 C128.922229,15.9657526 130.773729,18.5003421 131.810167,21.3064947 C134.627667,17.2732789 139.598542,14.8090947 144.770667,14.8090947 C146.481292,14.8090947 148.222104,15.0907158 149.912604,15.6640158 C150.325167,13.1897737 151.331417,10.7356474 152.609354,8.9554 C156.111104,4.05720526 162.037917,0.466536842 168.105604,0.466536842 C169.886667,0.466536842 171.687854,0.768273684 173.438729,1.45221053 C180.039729,4.00691579 182.967917,9.7198 182.827042,16.3781263 C188.280917,13.3205263 194.841667,11.6408579 201.080417,11.6408579 C204.481542,11.6408579 207.792104,12.1437526 210.780667,13.1897737 C214.745292,14.5878211 217.462167,16.8609053 219.072167,19.5664789 C234.538229,16.4284158 245.476167,15.5533789 256.665667,15.5533789 C260.801354,15.5533789 264.977292,15.6740737 269.424917,15.835 C281.077292,16.2674895 290.455542,17.2330474 305.307792,21.4774789 C320.129854,25.7118526 319.033042,38.3848 306.998292,41.2613579 L309.222104,41.4323421 C318.378979,42.3274947 338.584479,44.9827789 340.788167,56.0062316 C343.102542,67.5929263 311.858479,70.6203526 303.244979,71.8273 C293.796292,73.1549421 284.528729,73.9998053 275.281292,73.9998053 C268.680292,73.9998053 262.089354,73.5673158 255.448104,72.5715842 C253.898479,74.6435105 252.087229,76.3935842 250.265917,77.6307053 C246.432104,80.1954684 242.155542,81.4024158 237.889042,81.4024158 C234.508042,81.4024158 231.137104,80.6380158 228.017729,79.1997368 C222.785229,82.2573368 216.697417,84.1381632 211.957979,84.7215211 C209.241104,85.0534316 206.403479,85.2344737 203.505479,85.2344737 C195.878104,85.2344737 187.888479,84.0074105 180.784354,81.2414895 C172.663917,87.7992368 160.075729,89.7605263 148.493792,89.7605263" id="path-10"></path>
        <path d="M78.4971702,76.9550438 C67.5804238,76.9550438 54.5306357,73.07367 49.52,63.7846532 C42.9598906,66.200404 36.0979357,67.6458114 29.9503486,67.6458114 C28.8335202,67.6458114 27.7368148,67.5952727 26.6702939,67.504303 C17.6652358,66.6653603 4.90723172,61.7529966 1.2045933,52.6560269 C-3.51425837,41.1331987 9.61602187,29.5598316 20.1101846,27.8111919 C21.8407656,27.5180673 23.561285,27.3765589 25.2415584,27.3765589 C31.358961,27.3765589 37.0839645,29.2161684 42.1750923,32.3192458 L42.2656459,31.8846128 C43.7145044,27.295697 47.8699111,24.3442357 52.397594,23.1919529 C53.9873137,22.7977508 55.6675871,22.595596 57.3579221,22.595596 C57.6597676,22.595596 57.9817362,22.6057037 58.2835817,22.6158114 C56.8749692,19.2398249 56.8548462,15.4089899 59.2494874,11.7095556 C63.7067396,4.87672054 71.9169378,1.29857912 79.7649214,0.358558923 C80.8515653,0.227158249 81.9281476,0.166511785 82.9946685,0.166511785 C90.7118524,0.166511785 97.8253452,3.52228283 101.467614,10.8200741 C102.30272,12.4676364 102.775612,14.2769226 103.037211,16.1266397 C103.268626,16.116532 103.500041,16.116532 103.741517,16.116532 C109.184798,16.116532 114.135065,18.2391582 116.710813,23.7478788 C117.48555,25.3651178 117.908134,27.1137576 118.14961,28.9028283 C123.160246,25.0315623 129.016049,22.3429024 135.566097,21.5544983 C137.920492,21.2714815 140.445933,21.0794343 142.991497,21.0794343 C150.748927,21.0794343 158.838387,22.8078586 163.8289,28.8017508 C167.551661,33.3098047 167.672399,37.9492593 165.680219,42.0732189 C166.364402,42.0428956 167.058647,42.0226801 167.752891,42.0226801 C171.536022,42.0226801 175.299029,42.6089293 177.945208,44.8629562 C184.294026,50.321138 175.792044,57.5178519 171.053069,59.8123098 C167.511415,61.5104108 162.963609,62.5110774 158.415803,62.5110774 C155.799809,62.5110774 153.173753,62.1775219 150.758988,61.4497643 C149.17933,65.5332929 145.959645,68.5757239 141.452085,70.5366263 C137.397293,72.2953737 133.422994,73.0938855 129.599617,73.0938855 C122.224525,73.0938855 115.422939,70.1222088 109.738182,65.2704916 C101.618537,71.9517104 89.906931,76.156532 82.0589474,76.8135354 C80.9119344,76.9045051 79.7146138,76.9550438 78.4971702,76.9550438" id="path-12"></path>
        <path d="M185.551125,111.833767 C174.584113,111.833767 163.096769,108.339844 155.481901,100.693142 C143.994557,105.654514 129.865524,107.201823 118.98857,107.201823 C118.548288,107.201823 118.118013,107.19184 117.687738,107.19184 C108.872102,107.111979 93.1220327,105.175347 87.5284566,97.1393229 C86.2876633,97.4388021 85.0668828,97.7382812 83.8761215,98.0078125 C74.5001273,100.19401 64.6238131,102.210503 54.8775822,102.210503 C53.5867569,102.210503 52.2959316,102.180556 51.0051064,102.100694 C37.6565724,101.312066 22.687002,99.2256944 10.7593764,92.8068576 C0.742972727,87.4262153 -3.70987407,77.6032986 5.48600505,68.6888021 C15.7925943,58.7361111 28.9910323,55.1423611 42.5597071,55.1423611 C46.7724003,55.1423611 51.0151128,55.4917535 55.2177997,56.1006944 L55.277838,55.5915799 C56.058337,51.0993924 60.3610879,47.4756944 64.8339475,47.4756944 C65.754536,47.4756944 66.6751246,47.625434 67.5757003,47.9548611 C68.7664616,48.3940972 69.8471525,49.0529514 70.8177731,49.8515625 C73.8997434,36.3650174 100.786933,27.2309028 111.924053,26.3224826 C113.845281,26.1627604 115.906599,26.062934 118.037962,26.062934 C126.823579,26.062934 136.709899,27.859809 141.783143,35.1371528 C142.753763,36.5247396 143.534262,37.9322917 144.144653,39.3498264 C146.806354,37.2534722 150.138485,36.0954861 153.450602,36.0954861 C155.922182,36.0954861 158.373749,36.734375 160.525125,38.1119792 C159.864703,35.4166667 160.044818,32.4717882 161.355656,29.7465278 C166.088682,19.9835069 178.806813,16.4596354 188.903268,16.4097222 C188.993325,16.4097222 189.083383,16.4097222 189.163434,16.4097222 C195.517496,16.4097222 202.972262,17.8072917 208.325685,21.6705729 C208.685915,19.6740451 209.476421,17.7074653 210.747233,15.9205729 C216.460886,7.85460069 226.467283,2.35416667 236.233527,0.956597222 C238.204787,0.677083333 240.246092,0.517361111 242.287397,0.517361111 C249.782189,0.517361111 257.317006,2.67361111 262,8.89279514 L262,103.118924 C256.226309,105.993924 250.032349,107.87066 243.578223,108.868924 C240.936534,109.278212 238.08471,109.49783 235.132823,109.49783 C226.857533,109.49783 217.831762,107.760851 210.707207,103.608073 C203.42255,108.958767 193.656306,111.813802 185.691214,111.833767 C185.641182,111.833767 185.601157,111.833767 185.551125,111.833767" id="path-14"></path>
        <path d="M0,95.0792727 L0,0.346036364 C0.201428571,0.617018182 0.402857143,0.898036364 0.604285714,1.17905455 C3.57535714,5.59505455 4.89471429,11.0749091 4.48178571,16.2837818 C4.68321429,16.2737455 4.87457143,16.2737455 5.076,16.2737455 C6.74785714,16.2737455 8.41971429,16.5648 10.0714286,16.9963636 C11.3102143,17.3476364 12.5389286,17.7089455 13.7273571,18.3312 C18.1386429,20.6194909 21.2607857,24.3931636 23.0736429,28.7489455 C29.1467143,19.7864727 42.3302143,15.5912727 56.4201429,15.5912727 C73.3300714,15.5912727 91.5392143,21.6331636 100.3215,32.7735273 L101.530071,32.8036364 C111.118071,32.9541818 122.770714,33.2954182 131.13,38.6749091 C145.340786,47.7979636 142.651714,63.9866182 129.548786,72.4372364 C115.338,81.5803636 97.6223571,85.6752 81.1354286,88.4050909 C68.4857143,90.4926545 55.4532857,91.9780364 42.5115,91.9780364 C31.6645714,91.9780364 20.8780714,90.9342545 10.434,88.3448727 L10.0714286,88.6158545 C8.85278571,89.5994182 7.614,90.5227636 6.49607143,91.2955636 C4.39114286,92.7106909 2.22578571,93.9652364 0,95.0792727" id="path-16"></path>
        <path d="M64.1842581,69.442 C55.3013935,69.442 44.8144,67.8406 37.4955613,62.5468 C36.2824387,64.8826 34.2371742,66.7288 31.5703097,67.4428 C30.6579613,67.6774 29.7355871,67.7998 28.8232387,67.7998 C26.2365806,67.7998 23.730129,66.8818 21.765071,65.3008 L21.6347355,65.26 C20.5419226,65.5252 19.4390839,65.668 18.3663226,65.668 C16.9226065,65.668 15.4989419,65.4028 14.1454581,64.7908 C4.93174194,60.6496 0.440180645,49.7866 0.209587097,40.0048 C-0.241574194,21.4918 11.5387484,6.9364 28.8432903,3.9376 C30.6278839,2.8054 32.5027097,1.8772 34.558,1.255 C36.7235742,0.6022 39.0495613,0.2554 41.3655226,0.2554 C46.4285548,0.2554 51.4815613,1.9384 54.9103871,5.9266 C55.8327613,7.018 56.5846968,8.2012 57.1762194,9.4354 C60.404529,8.395 63.823329,7.8646 67.2321032,7.8646 C73.0570968,7.8646 78.8720645,9.4048 83.6744258,12.577 C87.6446452,15.2086 91.3541935,18.799 92.6675742,23.3686 C96.0161935,23.7256 99.2745806,25.0618 102.162013,27.6322 C103.064335,28.4278 103.846348,29.4682 104.488,30.6106 C106.031974,29.5396 107.816568,28.8868 109.681368,28.8868 C110.102452,28.8868 110.533561,28.9174 110.974697,28.9888 C110.673923,27.1732 111.245394,25.2046 113.090142,23.4094 C116.208168,20.38 121.211045,19.1662 125.732684,19.1662 C126.955832,19.1662 128.138877,19.258 129.241716,19.4212 C134.75591,20.2474 142.205084,24.2866 141.082194,31.1716 C142.90689,30.121 144.962181,29.509 147.107703,29.509 C147.408477,29.509 147.699226,29.5192 148,29.5396 L148,57.5896 C144.2704,61.8226 138.696052,64.7806 133.3924,65.5762 C131.998813,65.7802 130.424761,65.8924 128.770503,65.8924 C123.617239,65.8924 117.601755,64.7908 113.38089,61.8736 C111.275471,64.1686 108.107316,65.3926 105.089548,65.7394 C104.066916,65.8516 102.994155,65.9128 101.871265,65.9128 C97.0889548,65.9128 91.5948129,64.8112 87.3639226,62.2714 L86.1808774,63.1588 C80.7168129,66.9532 74.6612258,68.983 68.0441935,69.34 C66.8110194,69.4012 65.5076645,69.442 64.1842581,69.442" id="path-18"></path>
        <path d="M69.0285556,29.5131923 C65.6413333,29.5131923 62.2642222,29.3814423 58.9073333,29.0571346 C53.0226667,28.5098654 47.0267778,27.6686923 41.3746667,25.9255385 C38.4727778,25.0438269 35.1361111,24.0911731 32.0724444,22.7432692 L31.3545556,24.0810385 L30.3333333,25.1553077 C28.028,27.5369423 24.6407778,28.3578462 21.3445556,28.3781154 C21.2737778,28.3781154 21.203,28.3781154 21.1221111,28.3781154 C15.379,28.3781154 8.69555556,26.8781923 3.11422222,24.1114423 C2.33566667,25.7937885 1.274,27.3747885 0,28.8037692 L0,0.933576923 C0.353888889,0.963980769 0.707777778,1.00451923 1.06166667,1.07546154 C4.28711111,1.62273077 8.15966667,3.19359615 11.193,5.51442308 C11.2031111,5.51442308 11.2132222,5.52455769 11.2233333,5.52455769 C11.6581111,5.52455769 16.0362222,3.02130769 21.6276667,2.09905769 C22.6286667,1.93690385 23.9734444,1.85582692 25.571,1.85582692 C26.9764444,1.85582692 28.5841111,1.91663462 30.3333333,2.03825 C45.227,3.06184615 70.4542222,8.46359615 71.5057778,17.3111154 C72.709,17.2401731 73.9122222,17.1895 75.1053333,17.1895 C80.9697778,17.1895 86.6016667,18.2739038 90.2517778,22.32775 C91.3033333,23.5033654 90.8685556,25.6823077 89.6046667,26.5336154 C85.6714444,29.1686154 81.1012222,29.1078077 76.5006667,29.3206346 C74.0234444,29.44225 71.526,29.5131923 69.0285556,29.5131923" id="path-20"></path>
    </defs>
    <g id="Page-1" stroke="none" stroke-width="1" fill="none" fill-rule="evenodd">
        <g id="Desktop-HD-Copy" transform="translate(0.000000, -71.000000)">
            <g id="Group-2" transform="translate(0.000000, 71.000000)">
                <mask id="mask-2" fill="white">
                    <use xlink:href="#path-1"></use>
                </mask>
                <use id="Rectangle" fill="#81B1EC" xlink:href="#path-1"></use>
                <g id="clouds" mask="url(#mask-2)">
                    <g transform="translate(0.000000, -71.000000)">
                        <g id="Group-3">
                            <rect id="Rectangle" fill="#A6DAFA" fill-rule="nonzero" x="0" y="0" width="1439" height="776"></rect>
                            <g id="Clip-2" transform="translate(0.000000, 3.395062)" fill="#D8D8D8" fill-rule="nonzero">
                                <path d="M927.853112,0.988834376 C923.053091,2.45013308 918.585147,5.19132788 915.837965,9.40389931 C913.815315,12.5179772 913.825378,15.7328344 915.022867,18.5748084 C914.751168,18.5546526 914.479469,18.5546526 914.207769,18.5546526 C912.798958,18.5546526 911.380084,18.7259772 910.061839,19.0585487 C906.247986,20.0159513 902.746084,22.4951201 901.518406,26.3549642 L901.437902,26.7177694 C897.151091,24.1176655 892.341007,22.5656655 887.188783,22.5656655 C885.769909,22.5656655 884.320846,22.6866006 882.851657,22.9284707 C874.006336,24.3998474 862.957231,34.1250422 866.922028,43.7998474 C870.051601,51.4288344 880.798818,55.5607824 888.37621,56.2561591 C889.281874,56.3367824 890.207664,56.3770941 891.15358,56.3770941 C896.32593,56.3770941 902.102056,55.1677435 907.626608,53.1320032 C911.853042,60.9423928 922.841769,64.1975616 932.039294,64.1975616 C933.065713,64.1975616 934.072007,64.15725 935.038049,64.0766266 C941.649399,63.5324188 951.52114,59.9950681 958.353874,54.3816655 C963.143832,58.463224 968.879706,60.9625487 975.088538,60.9625487 C978.308678,60.9625487 981.659636,60.2873279 985.081035,58.8159513 C988.874762,57.163172 991.581692,54.6134578 992.91,51.1768863 C994.952776,51.7815616 997.156559,52.0637435 999.370406,52.0637435 C1003.19432,52.0637435 1007.01824,51.2272759 1009.99687,49.796211 C1014.00192,47.8814058 1021.15666,41.8346526 1015.80318,37.249198 C1013.57927,35.3545487 1010.41951,34.8607305 1007.22956,34.8607305 C1006.64591,34.8607305 1006.06226,34.8808863 1005.47861,34.9111201 C1007.15912,31.4443149 1007.04843,27.5441591 1003.91885,23.7649383 C999.722608,18.7259772 992.91,17.2747565 986.379154,17.2747565 C984.225685,17.2747565 982.102406,17.4360032 980.109944,17.6778733 C974.595455,18.3329383 969.654552,20.5903928 965.428119,23.8455616 C965.246986,22.3439513 964.88472,20.8725746 964.230629,19.5120552 C962.057035,14.8963668 957.880916,13.1125746 953.30228,13.1125746 C953.101021,13.1125746 952.909825,13.1125746 952.708566,13.1226526 C952.487182,11.5605746 952.084664,10.0488863 951.390322,8.65813308 C949.49849,4.8789123 946.489671,2.35943178 942.937455,0.988834376 L1439,0.988834376 L1439,26.7480032 C1434.29055,20.4694578 1426.71315,18.2926266 1419.17601,18.2926266 C1417.12317,18.2926266 1415.07034,18.4538733 1413.08794,18.7360552 C1403.26651,20.1469642 1393.20357,25.6998993 1387.45764,33.8428603 C1386.17964,35.6468084 1385.38467,37.6321591 1385.02241,39.6477435 C1379.63873,35.7475876 1372.14185,34.3366785 1365.75188,34.3366785 L1365.49024,34.3366785 L1365.49024,34.3366785 C1355.33674,34.3870681 1342.54675,37.9445746 1337.78698,47.8007824 C1336.46873,50.5520552 1336.2876,53.5250422 1336.95176,56.2460811 C1334.78822,54.8553279 1332.3228,54.2103409 1329.83726,54.2103409 C1326.50643,54.2103409 1323.15547,55.3793798 1320.47873,57.4957435 C1319.86489,56.0646785 1319.07998,54.6436915 1318.10387,53.2428603 C1313.00197,45.8960552 1303.05978,44.0820292 1294.22452,44.0820292 C1292.08112,44.0820292 1290.00815,44.1828084 1288.07607,44.3440552 C1276.87602,45.2611461 1249.83691,54.4824448 1246.73752,68.0977175 C1245.76142,67.2914837 1244.67462,66.6263409 1243.47713,66.1829123 C1242.57147,65.8503409 1241.64568,65.699172 1240.71989,65.699172 C1236.22176,65.699172 1231.89469,69.3574578 1231.10978,73.8925227 L1231.04941,74.4064967 C1226.82297,73.7917435 1222.55629,73.4390162 1218.31979,73.4390162 C1204.67445,73.4390162 1191.40143,77.0670681 1181.03661,87.1147565 C1171.78877,96.1143409 1176.26678,106.031016 1186.33978,111.463016 C1198.3348,117.94312 1213.38895,120.049406 1226.81291,120.845562 C1228.11103,120.926185 1229.40915,120.956419 1230.70727,120.956419 C1240.50857,120.956419 1250.44069,118.920679 1259.86966,116.713614 C1261.06715,116.44151 1262.29483,116.139172 1263.54263,115.836834 C1269.16781,123.949562 1285.00687,125.904679 1293.87232,125.985302 C1294.30503,125.985302 1294.73773,125.99538 1295.1805,125.99538 C1306.11892,125.99538 1320.32778,124.433302 1331.88003,119.424575 C1339.53793,127.144263 1351.09018,130.671536 1362.11916,130.671536 L1362.26004,130.671536 L1362.26004,130.671536 C1370.27014,130.65138 1380.09157,127.769094 1387.41738,122.367328 C1394.5822,126.559743 1403.65897,128.313302 1411.98101,128.313302 C1414.94958,128.313302 1417.81752,128.091588 1420.47413,127.678393 C1426.96473,126.670601 1433.19369,124.775951 1439,121.87351 L1439,367.452315 C1438.69811,367.432159 1438.40629,367.422081 1438.1044,367.422081 C1435.95093,367.422081 1433.88803,368.026756 1432.05657,369.064782 C1433.18362,362.262185 1425.70686,358.271328 1420.17224,357.455016 C1419.06532,357.293769 1417.8779,357.203068 1416.65022,357.203068 C1412.11183,357.203068 1407.09043,358.402341 1403.96085,361.395484 C1402.10927,363.169198 1401.53569,365.114237 1401.83757,366.908107 C1401.3948,366.837562 1400.9621,366.807328 1400.53945,366.807328 C1398.66775,366.807328 1396.87655,367.452315 1395.32685,368.510497 C1394.68283,367.381769 1393.89792,366.353821 1392.99225,365.567743 C1390.09413,363.028107 1386.82367,361.707899 1383.46265,361.355172 C1382.14441,356.840263 1378.42112,353.292834 1374.4362,350.69273 C1369.61605,347.558497 1363.77955,346.03673 1357.93298,346.03673 C1354.51158,346.03673 1351.08012,346.560782 1347.83985,347.58873 C1347.24614,346.369302 1346.49142,345.200263 1345.56563,344.121925 C1342.1241,340.181458 1337.05238,338.518601 1331.9706,338.518601 C1329.64606,338.518601 1327.31146,338.86125 1325.13787,339.506237 C1323.07497,340.12099 1321.1932,341.038081 1319.40199,342.15673 C1302.03336,345.11964 1290.20941,359.500834 1290.66224,377.792263 C1290.89369,387.45699 1295.40189,398.189977 1304.64973,402.281614 C1306.00822,402.886289 1307.43716,403.148315 1308.88622,403.148315 C1309.96296,403.148315 1311.06988,403.007224 1312.16674,402.745198 L1312.29756,402.78551 C1314.2699,404.347588 1316.78563,405.254601 1319.38187,405.254601 C1320.29759,405.254601 1321.22338,405.133666 1322.13911,404.901873 C1324.81585,404.196419 1326.86869,402.372315 1328.08631,400.064471 C1335.43225,405.294912 1345.95808,406.877146 1354.87385,406.877146 C1356.20215,406.877146 1357.51034,406.836834 1358.74808,406.776367 C1365.38962,406.42364 1371.46763,404.418133 1376.95193,400.669146 L1378.13936,399.792367 C1382.38592,402.301769 1387.90041,403.390185 1392.70043,403.390185 C1393.82748,403.390185 1394.90421,403.329717 1395.93063,403.21886 C1398.95957,402.876211 1402.13946,401.66686 1404.25268,399.399328 C1408.48917,402.281614 1414.52694,403.370029 1419.69929,403.370029 C1421.35967,403.370029 1422.93955,403.259172 1424.3383,403.057614 C1429.66159,402.271536 1435.25659,399.348938 1439,395.166601 L1439,431.336263 C1432.51947,429.340834 1425.29428,428.141562 1417.19362,428.141562 C1411.47787,428.141562 1405.31935,428.736159 1398.66775,430.076523 C1349.29898,440.013354 1345.83733,492.227068 1345.83733,492.227068 C1345.83733,492.227068 1336.33792,478.954445 1317.86236,478.954445 C1314.04851,478.954445 1309.85227,479.518808 1305.27363,480.889406 C1274.81916,489.978432 1276.54497,517.059307 1276.6503,518.40767 L1276.57645,518.131772 C1275.80352,515.027743 1269.0542,490.895482 1245.51991,488.538549 C1243.33625,488.326912 1241.28341,488.226133 1239.37145,488.226133 C1220.82788,488.226133 1214.46399,497.557902 1213.56445,499.050985 L1213.47952,499.190912 L1214.35668,497.212064 C1226.63456,468.191911 1207.87286,448.287328 1189.19765,448.287328 C1183.9448,448.287328 1178.69194,449.869562 1174.1435,453.265821 C1156.12078,466.729925 1162.48055,491.773562 1163.34597,494.83725 L1163.44659,495.159743 C1163.44659,495.159743 1148.41257,471.154133 1121.18226,471.154133 C1116.90551,471.154133 1112.33694,471.74873 1107.47654,473.10925 C1071.62229,483.187172 1071.62229,512.473614 1071.62229,512.473614 C1071.62229,512.473614 1071.54179,511.647224 1071.29022,510.286705 C1070.19336,504.381042 1065.66503,488.447847 1048.98069,486.653977 C1047.69263,486.512886 1046.45489,486.452419 1045.26746,486.452419 C1044.61337,486.452419 1043.96934,486.472575 1043.34544,486.502808 C1032.60954,487.098036 1026.26047,492.724351 1024.78739,494.180975 L1024.568,494.403899 L1026.35163,492.356809 C1030.91051,486.780636 1033.68837,480.501966 1035.00327,474.016263 C1041.92657,446.705094 1026.43971,415.524003 995.455923,415.524003 C993.775413,415.524003 992.05465,415.614705 990.27351,415.806185 C955.073357,419.162133 951.712336,456.047328 951.69221,456.107795 C951.631832,456.017094 933.105965,435.347276 904.778797,434.974393 L903.973762,434.974393 L903.973762,434.974393 C896.235364,434.974393 887.802622,436.496159 878.81642,440.356003 C849.613776,452.913094 842.589846,479.861458 841.06028,495.482237 C840.428637,502.031336 840.748745,506.596813 840.801731,507.260443 L840.798643,507.293562 L840.351573,505.410039 C836.563562,490.560432 826.267762,475.358726 810.066434,471.930133 C807.852587,471.456471 805.538112,471.214601 803.102881,471.214601 C802.881497,471.214601 802.660112,471.214601 802.438727,471.224679 C781.709077,471.637873 768.909021,485.484938 768.888895,485.505094 L768.888895,485.495016 C768.858706,485.333769 753.985685,426.085666 703.238294,426.085666 C695.972853,426.085666 687.972818,427.295016 679.167748,430.076523 C632.204021,444.88099 628.229161,507.434653 628.229161,507.434653 C628.229161,507.434653 618.166224,475.941146 583.569846,474.893042 C582.885566,474.872886 582.221413,474.862808 581.557259,474.862808 C544.425021,474.862808 537.441343,506.809821 537.441343,506.809821 C526.543182,476.243484 491.715357,447.561717 457.501371,447.561717 C452.238455,447.561717 446.995664,448.236938 441.843441,449.698237 C403.26214,460.612627 399.075958,498.414912 399.075958,498.414912 C390.633154,495.593094 382.975259,494.494601 376.192839,494.494601 C352.665692,494.494601 339.543622,507.646289 339.543622,507.646289 C355.714762,470.630081 330.175028,429.371068 293.425182,429.371068 C290.154727,429.371068 286.783643,429.70364 283.352182,430.388938 C241.419923,438.793925 240.584699,495.048886 240.584699,495.048886 C240.584699,495.048886 220.92172,460.038185 182.269979,460.038185 C179.452357,460.038185 176.534105,460.219588 173.505161,460.622705 C129.057168,466.508211 121.308706,507.343951 121.308706,507.343951 C117.937622,491.904575 107.462105,475.507795 90.5664336,471.930133 C88.3525874,471.456471 86.0381119,471.214601 83.6028811,471.214601 C83.3814965,471.214601 83.1601119,471.214601 82.9387273,471.224679 C62.2090769,471.637873 49.409021,485.484938 49.3888951,485.505094 L49.3888951,485.495016 C49.3587063,485.353925 38.6618042,443.268523 0,431.336263 L0,395.166601 C1.26793007,393.745614 2.32453846,392.173458 3.09938462,390.500523 C8.65412587,393.251795 15.3057273,394.743328 21.0214755,394.743328 L21.2428601,394.743328 L21.2428601,394.743328 C24.5233776,394.723172 27.8944615,393.90686 30.1888112,391.538549 L31.2051678,390.470289 L31.9196364,389.140003 C34.9687063,390.480367 38.2894755,391.427692 41.1775385,392.304471 C46.8027203,394.037873 52.770042,394.874341 58.6266713,395.418549 C61.9675664,395.741042 65.3285874,395.872055 68.6996713,395.872055 C71.1852168,395.872055 73.6707622,395.80151 76.1361818,395.680575 C80.7148182,395.468938 85.2632657,395.529406 89.1777483,392.909146 C90.4356154,392.062601 90.8683217,389.895847 89.8217762,388.726808 C86.1890559,384.69564 80.584,383.617302 74.7474965,383.617302 C73.5600699,383.617302 72.3625804,383.667692 71.1650909,383.738237 C70.1185455,374.940211 45.0115175,369.568679 30.1888112,368.550808 C28.4479231,368.429873 26.8479161,368.369406 25.4491678,368.369406 C23.8592238,368.369406 22.5208531,368.450029 21.5246224,368.611276 C15.9598182,369.528367 11.6025664,372.017614 11.1698601,372.017614 C11.1597972,372.017614 11.1497343,372.007536 11.1396713,372.007536 C8.12079021,369.699692 4.26668531,368.137614 1.05660839,367.593406 C0.704405594,367.52286 0.352202797,367.482549 0,367.452315 L0,121.87351 C2.22390909,120.75486 4.38744056,119.49512 6.49059441,118.074133 C7.60758042,117.298133 8.84532168,116.370964 10.0629371,115.383328 L10.4252028,115.111224 C20.8604685,117.711328 31.6378741,118.759432 42.4756573,118.759432 C55.4065315,118.759432 68.427972,117.267899 81.067021,115.171692 C97.540049,112.430497 115.240755,108.318705 129.439559,99.1377175 C142.531441,90.6521071 145.218245,74.3964188 131.019441,65.2355876 C122.667203,59.8338214 111.024385,59.491172 101.444469,59.3400032 L100.236916,59.3097694 C91.462035,48.1232759 73.2682448,42.0563668 56.3725734,42.0563668 C42.2945245,42.0563668 29.1221399,46.2689383 23.0541888,55.2685227 C21.2428601,50.8947045 18.1233497,47.1054058 13.7157832,44.8076396 C12.5283566,44.1828084 11.3006783,43.8200032 10.0629371,43.4672759 C8.41261538,43.0339253 6.74216783,42.7416655 5.07172028,42.7416655 C4.87046154,42.7416655 4.67926573,42.7416655 4.47800699,42.7517435 C4.89058741,37.5213019 3.57234266,32.0187565 0.603776224,27.5844707 C0.402517483,27.3022889 0.201258741,27.0201071 0,26.7480032 L0,0.988834376 L927.853112,0.988834376 Z M308.781224,245.801717 C307.714552,245.801717 306.637818,245.862185 305.551021,245.993198 C297.70193,246.930445 289.490573,250.498029 285.032692,257.310705 C282.637713,260.999224 282.657839,264.818756 284.06665,268.184782 L283.14086,268.164627 L283.14086,268.164627 C281.450287,268.164627 279.769776,268.366185 278.179832,268.759224 C273.65151,269.908107 269.495517,272.85086 268.046455,277.426237 L267.955888,277.859588 C262.864042,274.765666 257.138231,272.931484 251.019965,272.931484 C249.339455,272.931484 247.618692,273.072575 245.887867,273.364834 C235.392224,275.108315 222.260091,286.647536 226.979608,298.136367 C230.682769,307.206497 243.442573,312.104367 252.448902,312.940834 C253.515573,313.031536 254.612434,313.081925 255.72942,313.081925 C261.877874,313.081925 268.740797,311.640782 275.301832,309.232159 C280.313175,318.493769 293.364804,322.363692 304.283091,322.363692 C305.500706,322.363692 306.698196,322.313302 307.845371,322.222601 C315.694462,321.567536 327.40772,317.37512 335.52851,310.713614 C341.21407,315.551016 348.016615,318.513925 355.392748,318.513925 C359.216664,318.513925 363.191524,317.717769 367.246888,315.964211 C371.755084,314.009094 374.975224,310.97564 376.555105,306.904159 C378.97021,307.629769 381.596636,307.962341 384.213,307.962341 C388.761448,307.962341 393.309895,306.964627 396.852049,305.271536 C401.591692,302.983847 410.094874,295.808367 403.745161,290.366289 C401.098608,288.118912 397.33507,287.534393 393.551406,287.534393 C392.857063,287.534393 392.16272,287.554549 391.478441,287.584782 C393.470902,283.47299 393.350147,278.847224 389.62686,274.352471 C384.635643,268.376263 376.545042,266.652938 368.786517,266.652938 C366.240594,266.652938 363.714797,266.844419 361.36007,267.126601 C354.809098,267.912679 348.952469,270.593406 343.941126,274.45325 C343.699615,272.669458 343.276972,270.925977 342.502126,269.31351 C339.926014,263.821042 334.975049,261.704679 329.531,261.704679 C329.28949,261.704679 329.058042,261.704679 328.826594,261.714756 C328.564958,259.870497 328.092,258.066549 327.256776,256.423847 C323.613993,249.147588 316.499497,245.801717 308.781224,245.801717 Z M1037.39824,249.218133 C1033.22213,249.218133 1029.08626,250.487951 1026.02713,253.521406 C1025.1114,254.448575 1024.33655,255.466445 1023.69252,256.55486 C1020.07993,255.093562 1016.13526,254.347795 1012.22078,254.347795 C1007.59183,254.347795 1002.983,255.395899 998.977951,257.592886 C995.113783,259.719328 991.440811,262.732627 989.931371,266.804107 C986.801797,266.88473 983.702413,267.892523 980.844538,270.03912 C979.979126,270.704263 979.174091,271.581042 978.499874,272.60899 C977.020622,271.409717 975.239483,270.653873 973.337587,270.653873 C973.096077,270.653873 972.854566,270.663951 972.613056,270.684107 C972.995448,269.041406 972.613056,267.207224 971.033175,265.453666 C967.963979,262.047328 962.489741,260.646497 957.880916,260.646497 C957.357643,260.646497 956.844434,260.666653 956.35135,260.696886 C951.199126,261.069769 944.014189,264.234237 944.597839,270.593406 C942.766385,269.353821 940.633042,268.628211 938.348755,268.628211 C938.006615,268.628211 937.664476,268.648367 937.322336,268.678601 C934.333643,268.960782 930.670734,270.139899 927.722294,272.064782 L927.712231,272.064782 C927.370091,272.064782 923.485797,269.464679 918.404014,268.225094 C916.612811,267.801821 913.603993,267.570029 909.951147,267.570029 C896.15486,267.570029 873.150986,270.81512 871.581168,278.776679 C869.56858,278.504575 867.535867,278.313094 865.553469,278.313094 C861.176091,278.313094 857.070413,279.230185 854.071657,282.092315 C853.015049,283.100107 853.276685,285.135847 854.373545,285.982393 C857.794944,288.66312 861.991189,288.945302 866.197497,289.459276 C870.987455,290.033717 875.817664,290.426756 880.637811,290.426756 C881.221462,290.426756 881.795049,290.416679 882.378699,290.406601 C887.812685,290.285666 893.347301,289.92286 898.680657,288.71351 C901.39765,288.108834 904.497035,287.443692 907.42535,286.425821 L907.978811,287.715795 C909.780077,290.910497 913.402734,292.039224 916.854322,292.341562 C917.699608,292.412107 918.575084,292.442341 919.470685,292.442341 C924.160014,292.442341 929.362552,291.484938 933.880811,289.660834 C936.235538,295.969614 942.88714,300.988419 949.407923,302.449717 C951.370196,302.883068 953.734986,303.145094 956.210469,303.145094 C960.336273,303.145094 964.774028,302.399328 968.175301,300.444211 C969.956441,302.68151 972.804252,304.031951 975.551434,304.535847 C977.161503,304.828107 978.952706,304.999432 980.804287,304.999432 C984.658392,304.999432 988.794259,304.283899 992.205594,302.590808 L993.242077,303.477666 C998.032035,307.317354 1003.50627,309.584886 1009.61448,310.350808 C1012.26103,310.693458 1015.17928,310.905094 1018.1881,310.905094 C1025.15165,310.905094 1032.60829,309.746133 1038.34416,306.279328 C1039.29008,308.476315 1041.05109,310.300419 1043.49638,311.146964 C1044.56306,311.509769 1045.65992,311.681094 1046.74671,311.681094 C1048.88006,311.681094 1050.98321,311.026029 1052.69391,309.85699 L1052.82473,309.836834 C1054.07253,310.239951 1055.3304,310.461666 1056.5782,310.461666 C1057.65494,310.461666 1058.73167,310.290341 1059.77822,309.917458 C1068.58329,306.773146 1073.48394,297.189042 1074.34935,288.310393 C1076.0198,271.460107 1066.09774,257.401406 1050.29893,253.491172 C1048.71905,252.332211 1047.02848,251.354653 1045.18696,250.659276 C1042.75173,249.742185 1040.06492,249.218133 1037.39824,249.218133 Z M554.900538,73.4188603 C548.832587,73.4188603 542.905517,77.0166785 539.403615,81.9246266 C538.125622,83.7084188 537.119329,86.1674318 536.706748,88.6466006 C535.016175,88.0721591 533.275287,87.7899772 531.564587,87.7899772 C526.392238,87.7899772 521.421147,90.2590681 518.603524,94.3003149 C517.567042,91.4885746 515.715462,88.9489383 512.827399,86.8829642 C507.141839,82.7913279 499.051238,81.8540811 491.695231,81.8540811 C489.541762,81.8540811 487.438608,81.9347045 485.486399,82.0455616 C477.425986,82.4789123 450.527755,89.110185 453.979343,100.457925 C452.510154,100.115276 451.051028,99.8834837 449.642217,99.8834837 L449.511399,99.8834837 L449.511399,99.8834837 C444.328986,99.8834837 441.551615,102.90686 440.907587,106.484523 C438.100028,106.202341 435.26228,106.051172 432.414469,106.051172 C419.996804,106.051172 407.528825,108.832679 396.902364,114.748419 C383.750105,122.075068 384.273378,134.924419 395.96651,143.268938 C402.426916,147.884627 410.839531,149.839743 418.457175,151.55299 C429.154077,153.961614 439.891231,155.624471 450.869895,155.815951 C451.443483,155.826029 452.01707,155.826029 452.60072,155.826029 C466.558014,155.826029 480.937951,153.014289 494.975748,149.114133 C496.253741,156.430705 513.018594,160.804523 518.45258,161.620834 C523.222413,162.336367 529.109231,162.890653 535.287874,162.890653 C546.870315,162.890653 559.459049,160.925458 567.579839,154.354653 C574.684273,157.126081 582.674245,158.355588 590.301951,158.355588 C593.200077,158.355588 596.037825,158.174185 598.754818,157.841614 C603.494462,157.257094 609.582538,155.372523 614.815266,152.308834 C617.934776,153.749977 621.30586,154.515899 624.687007,154.515899 C628.953692,154.515899 633.230441,153.306549 637.06442,150.736679 C638.885811,149.497094 640.69714,147.743536 642.246832,145.667484 C648.888371,146.665198 655.479594,147.098549 662.080881,147.098549 C671.32872,147.098549 680.596685,146.252003 690.045783,144.921717 C698.659657,143.712367 729.905077,140.678912 727.590601,129.069146 C725.386818,118.023743 705.180441,115.363172 696.023168,114.466237 L693.799259,114.294912 C705.834531,111.412627 706.931392,98.7144448 692.108685,94.4716396 C677.25579,90.2187565 667.877133,89.2512759 656.224252,88.8179253 C651.776434,88.6566785 647.600315,88.5357435 643.464448,88.5357435 C632.274462,88.5357435 621.336049,89.4125227 605.869315,92.5568344 C604.259245,89.8458733 601.542252,87.5682629 597.577455,86.1674318 C594.588762,85.1193279 591.278056,84.6154318 587.876783,84.6154318 C581.637762,84.6154318 575.076727,86.2984448 569.622615,89.3621331 C569.763497,82.6905487 566.835182,76.9662889 560.233895,74.4064967 C558.482944,73.721198 556.681678,73.4188603 554.900538,73.4188603 Z" id="path-1"></path>
                            </g>
                            <g id="Fill-1-Clipped" transform="translate(0.000000, 3.395062)">
                                <mask id="mask-4" fill="white">
                                    <use xlink:href="#path-3"></use>
                                </mask>
                                <g id="path-1"></g>
                                <polygon id="Fill-1" fill="url(#linearGradient-5)" fill-rule="nonzero" mask="url(#mask-4)" points="0 772.010341 1439 772.010341 1439 -2.76015264 0 -2.76015264"></polygon>
                            </g>
                        </g>
                        <g id="Group-6" transform="translate(0.000000, 419.000000)">
                            <g id="Clip-5" fill="#FFFFFF" fill-opacity="0.4" fill-rule="nonzero">
                                <path d="M995.455923,0.92544 C1026.43971,0.92544 1041.92657,32.11296 1035.00327,59.42976 C1033.68837,65.9168 1030.91051,72.1967644 1026.35163,77.7740879 L1024.568,79.8216 L1024.78739,79.5986292 C1026.26047,78.141705 1032.60954,72.51423 1043.34544,71.91888 C1043.96934,71.88864 1044.61337,71.86848 1045.26746,71.86848 C1046.45489,71.86848 1047.69263,71.92896 1048.98069,72.07008 C1065.66503,73.86432 1070.19336,89.8008 1071.29022,95.70768 C1071.54179,97.06848 1071.62229,97.89504 1071.62229,97.89504 L1071.62591,97.7098129 C1071.69986,95.2117211 1073.28993,68.1337228 1107.47654,58.52256 C1112.33694,57.16176 1116.90551,56.56704 1121.18226,56.56704 C1148.41257,56.56704 1163.44659,80.5776 1163.44659,80.5776 L1163.34597,80.25504 C1162.48055,77.19072 1156.12078,52.14192 1174.1435,38.67504 C1178.69194,35.27808 1183.9448,33.69552 1189.19765,33.69552 C1207.87286,33.69552 1226.63456,53.6042073 1214.35668,82.6303434 L1213.47952,84.6096 L1213.56445,84.4696438 C1214.46399,82.9762529 1220.82788,73.64256 1239.37145,73.64256 C1241.28341,73.64256 1243.33625,73.74336 1245.51991,73.95504 C1269.0542,76.3124594 1275.80352,100.449696 1276.57645,103.554365 L1276.65464,103.88256 C1276.65464,103.88256 1274.03827,75.62832 1305.27363,66.30432 C1309.85227,64.93344 1314.04851,64.36896 1317.86236,64.36896 C1336.33792,64.36896 1345.83733,77.64432 1345.83733,77.64432 C1345.83733,77.64432 1349.29898,25.41984 1398.66775,15.48096 C1405.31935,14.14032 1411.47787,13.5456 1417.19362,13.5456 C1425.29428,13.5456 1432.51947,14.74512 1439,16.74096 L1439,143.85984 C1436.78615,143.38608 1434.47168,143.14416 1432.04651,143.14416 C1431.82513,143.14416 1431.59368,143.14416 1431.37229,143.15424 C1410.64264,143.56752 1397.84259,157.41744 1397.82246,157.4376 L1397.82246,157.42752 C1397.79227,157.26624 1383.46265,100.00176 1327.1102,100.00176 C1321.24351,100.00176 1314.91392,100.62672 1308.10131,101.9976 C1258.73255,111.93648 1255.2709,164.16096 1255.2709,164.16096 C1255.2709,164.16096 1245.76142,150.8856 1227.29593,150.8856 C1223.48208,150.8856 1219.28583,151.45008 1214.7072,152.82096 C1184.25272,161.91186 1185.97855,188.998319 1186.08387,190.34696 L1186.01001,190.071005 C1185.23709,186.966336 1178.48777,162.8291 1154.95348,160.47168 C1152.76982,160.26 1150.71698,160.1592 1148.80502,160.1592 C1130.26144,160.1592 1123.89756,169.492893 1122.99802,170.986284 L1122.91308,171.12624 L1123.79025,169.146984 C1136.06813,140.120847 1117.30643,120.21216 1098.63122,120.21216 C1093.37836,120.21216 1088.12551,121.79472 1083.57706,125.19168 C1065.55434,138.65856 1071.91412,163.70736 1072.77953,166.77168 L1072.88016,167.09424 C1072.88016,167.09424 1057.84613,143.08368 1030.61583,143.08368 C1026.33908,143.08368 1021.7705,143.6784 1016.9101,145.0392 C981.05586,155.1192 981.05586,184.41168 981.05586,184.41168 C981.05586,184.41168 980.975357,183.58512 980.723783,182.22432 C979.626923,176.31744 975.098601,160.38096 958.414252,158.58672 C957.126196,158.4456 955.888455,158.38512 954.701028,158.38512 C954.046937,158.38512 953.402909,158.40528 952.779007,158.43552 C942.043111,159.03087 935.694027,164.658344 934.220959,166.115269 L934.001566,166.33824 L935.785205,164.290728 C940.344198,158.713404 943.123059,152.43344 944.446895,145.9464 C951.360133,118.6296 935.873273,87.44208 904.88949,87.44208 C903.208979,87.44208 901.488217,87.5328 899.707077,87.72432 C864.506923,91.08096 861.145902,127.97376 861.125776,128.03424 C861.065399,127.94352 842.539531,107.26944 814.212364,106.89648 L813.417392,106.89648 L813.417392,106.89648 C805.66893,106.89648 797.236189,108.41856 788.249986,112.2792 C759.047343,124.83888 752.023413,151.7928 750.493846,167.4168 C749.862204,173.96725 750.182312,178.533668 750.235297,179.197434 L750.23221,179.23056 L749.78514,177.346649 C745.997128,162.49398 735.701329,147.28914 719.5,143.85984 C717.286154,143.38608 714.971678,143.14416 712.54651,143.14416 C712.325126,143.14416 712.093678,143.14416 711.872294,143.15424 C691.142643,143.56752 678.342587,157.41744 678.322462,157.4376 L678.322462,157.42752 C678.292273,157.26624 663.419252,98.00592 612.67186,98.00592 C605.396357,98.00592 597.406385,99.21552 588.601315,101.9976 C541.637587,116.80512 537.662727,179.37168 537.662727,179.37168 C537.662727,179.37168 527.59979,147.87168 493.003413,146.82336 C492.319133,146.8032 491.654979,146.79312 490.990825,146.79312 C453.858587,146.79312 446.874909,178.74672 446.874909,178.74672 C435.976748,148.17408 401.148923,119.4864 366.934937,119.4864 C361.672021,119.4864 356.419168,120.16176 351.277007,121.62336 C312.695706,132.54 308.509524,170.35008 308.509524,170.35008 C300.06672,167.52768 292.408825,166.42896 285.626406,166.42896 C262.099259,166.42896 248.977189,179.58336 248.977189,179.58336 C265.148329,142.55952 239.608594,101.292 202.858748,101.292 C199.588294,101.292 196.21721,101.62464 192.785748,102.31008 C150.85349,110.7168 150.018266,166.98336 150.018266,166.98336 C150.018266,166.98336 130.355287,131.96544 91.7035455,131.96544 C88.8859231,131.96544 85.9676713,132.14688 82.9387273,132.55008 C38.4907343,138.4368 30.7422727,179.28096 30.7422727,179.28096 C27.3711888,163.8384 16.8956713,147.43824 0,143.85984 L0,16.74096 C38.6618042,28.67568 49.3587063,70.76976 49.3888951,70.91088 L49.3888951,70.92096 C49.409021,70.9008 62.2090769,57.05088 82.9387273,56.6376 C83.1601119,56.62752 83.3814965,56.62752 83.6028811,56.62752 C86.0381119,56.62752 88.3525874,56.86944 90.5664336,57.3432 C106.758119,60.7725 117.053517,75.97734 120.850368,90.8300092 L121.308706,92.74416 C121.655041,91.0420957 130.00287,51.7949107 173.505161,46.03344 C176.534105,45.63024 179.452357,45.4488 182.269979,45.4488 C220.92172,45.4488 240.584699,80.46672 240.584699,80.46672 L240.591285,80.2033046 C240.717272,76.0419709 243.097213,23.8638912 283.352182,15.79344 C286.783643,15.108 290.154727,14.77536 293.425182,14.77536 C330.175028,14.77536 355.714762,56.04288 339.543622,93.06672 C339.543622,93.06672 352.665692,79.91232 376.192839,79.91232 C382.975259,79.91232 390.633154,81.01104 399.075958,83.83344 C399.075958,83.83344 403.26214,46.02336 441.843441,35.10672 C446.995664,33.64512 452.238455,32.96976 457.501371,32.96976 C491.715357,32.96976 526.543182,61.65744 537.441343,92.23008 C537.441343,92.23008 544.425021,60.27648 581.557259,60.27648 C582.221413,60.27648 582.885566,60.28656 583.569846,60.30672 C618.166224,61.35504 628.229161,92.85504 628.229161,92.85504 C628.229161,92.85504 632.204021,30.28848 679.167748,15.48096 C687.972818,12.69888 695.972853,11.48928 703.238294,11.48928 C753.985685,11.48928 768.858706,70.7496 768.888895,70.91088 L768.888895,70.92096 C768.909021,70.9008 781.709077,57.05088 802.438727,56.6376 C802.660112,56.62752 802.881497,56.62752 803.102881,56.62752 C805.538112,56.62752 807.852587,56.86944 810.066434,57.3432 C826.267762,60.7725 836.563562,75.97734 840.351573,90.8300092 L840.798643,92.71392 C840.748745,92.0170282 840.428637,87.4506092 841.06028,80.90016 C842.589846,65.27616 849.613776,38.32224 878.81642,25.76256 C887.802622,21.90192 896.235364,20.37984 903.973762,20.37984 L904.778797,20.37984 L904.778797,20.37984 C933.105965,20.7528 951.631832,41.42688 951.69221,41.5176 C951.712336,41.45712 955.073357,4.56432 990.27351,1.20768 C992.05465,1.01616 993.775413,0.92544 995.455923,0.92544 Z" id="path-4"></path>
                            </g>
                            <g id="Fill-4-Clipped">
                                <mask id="mask-7" fill="white">
                                    <use xlink:href="#path-6"></use>
                                </mask>
                                <g id="path-4"></g>
                                <polygon id="Fill-4" mask="url(#mask-7)" points="0 357.48528 1439 357.48528 1439 -417.44496 0 -417.44496"></polygon>
                            </g>
                        </g>
                        <g id="Group-15" transform="translate(852.000000, 254.000000)">
                            <g id="Fill-13-Clipped">
                                <mask id="mask-9" fill="white">
                                    <use xlink:href="#path-8"></use>
                                </mask>
                                <g id="path-10"></g>
                                <path d="M194.917438,61.8828132 C193.827197,61.8828132 192.726862,61.7148681 191.656811,61.3592198 C189.20377,60.5293736 187.437176,58.7412527 186.488263,56.5876044 C180.734216,59.986022 173.253955,61.1221209 166.26834,61.1221209 C163.249988,61.1221209 160.322491,60.9146593 157.667553,60.5787692 C151.539998,59.827956 146.048416,57.6051538 141.243282,53.8412088 L140.203515,52.9718462 C136.781371,54.6315385 132.632401,55.332956 128.766085,55.332956 C126.908638,55.332956 125.11176,55.165011 123.496589,54.8785165 C120.740703,54.3845604 117.883869,53.0607582 116.097086,50.8675934 C112.685037,52.7841429 108.233222,53.5151978 104.094346,53.5151978 C101.61102,53.5151978 99.2387373,53.2583407 97.2702475,52.8335385 C90.7288043,51.4010659 84.0561286,46.4812637 81.6939408,40.2969341 C77.1613668,42.0850549 71.9423451,43.0235714 67.2381591,43.0235714 C66.3397202,43.0235714 65.4614709,42.9939341 64.613506,42.9247802 C61.1509829,42.6284066 57.5168478,41.5219451 55.7098751,38.3902637 L55.15466,37.1257363 C52.2170675,38.1235275 49.1078631,38.7755495 46.3822618,39.3682967 C41.0320074,40.5537912 35.4798566,40.9094396 30.028654,41.027989 C29.4431545,41.0378681 28.8677498,41.0477473 28.2822502,41.0477473 C23.4468316,41.0477473 18.6013182,40.6624615 13.7961841,40.0993516 C9.57654949,39.5955165 5.36700971,39.3189011 1.93477105,36.6910549 C0.834435708,35.8612088 0.571970398,33.8656264 1.63192646,32.8777143 C4.6401827,30.072044 8.7588691,29.173044 13.1501156,29.173044 C15.1387951,29.173044 17.1779487,29.3607473 19.1969126,29.6274835 C20.7717044,21.822978 43.8484621,18.6419011 57.6884598,18.6419011 C61.3528793,18.6419011 64.3712303,18.8691209 66.1681082,19.284044 C71.2659921,20.4991758 75.1625925,23.047989 75.5058164,23.047989 L75.5159112,23.047989 C78.4736933,21.1610769 82.1482077,20.0052198 85.1463691,19.7286044 C85.489593,19.698967 85.8328168,19.6792088 86.1760407,19.6792088 C88.4675648,19.6792088 90.6076665,20.3905055 92.4449237,21.6056374 C91.8594241,15.3719121 99.0671253,12.2698681 104.235673,11.9043407 C104.730319,11.8747033 105.245155,11.8549451 105.770086,11.8549451 C110.393513,11.8549451 115.885095,13.2281429 118.964015,16.5672857 C120.548901,18.2862527 120.932505,20.0842527 120.548901,21.6945495 C120.791177,21.6747912 121.033453,21.6649121 121.275728,21.6649121 C123.183649,21.6649121 124.970432,22.4058462 126.454371,23.5814615 C127.130724,22.5737912 127.938309,21.7143077 128.806464,21.0622857 C131.673393,18.958033 134.782597,17.9701209 137.922086,17.8910879 C139.436309,13.8999231 143.120918,10.9460659 146.997329,8.86157143 C151.015067,6.70792308 155.638494,5.68049451 160.282111,5.68049451 C164.208996,5.68049451 168.166166,6.41154945 171.790206,7.84402198 C172.436274,6.77707692 173.213575,5.77928571 174.132204,4.87040659 C177.201029,1.89679121 181.35,0.652021978 185.53935,0.652021978 C188.214477,0.652021978 190.909794,1.16573626 193.352741,2.06473626 C195.200093,2.7463956 196.896022,3.70467033 198.480909,4.84076923 C214.329776,8.67386813 224.283268,22.4552418 222.607528,38.9731319 C221.739373,47.6766374 216.823196,57.0716813 207.990229,60.153967 C206.940368,60.5194945 205.860222,60.6874396 204.780076,60.6874396 C203.528319,60.6874396 202.266466,60.4700989 201.014709,60.0749341 L200.883476,60.0946923 C199.167357,61.2406703 197.057539,61.8828132 194.917438,61.8828132" id="Fill-13" fill="#FFFFFF" fill-rule="nonzero" mask="url(#mask-9)"></path>
                            </g>
                        </g>
                        <g id="Group-18" transform="translate(387.000000, 78.000000)">
                            <g id="Fill-16-Clipped">
                                <mask id="mask-11" fill="white">
                                    <use xlink:href="#path-10"></use>
                                </mask>
                                <g id="path-12"></g>
                                <path d="M148.493792,89.7605263 C142.315417,89.7605263 136.428854,89.2073421 131.659229,88.4932316 C126.225479,87.6785421 109.461354,83.3134158 108.183417,76.0113842 C94.1462292,79.9037895 79.7669167,82.7099421 65.8102292,82.7099421 C65.2266042,82.7099421 64.6530417,82.7099421 64.0794792,82.6998842 C53.1012917,82.5087842 42.3646042,80.8492316 31.6681667,78.4453947 C24.0508542,76.7355526 15.6386042,74.7843211 9.17847917,70.1778053 C-2.51414583,61.8498684 -3.03739583,49.0260526 10.1142917,41.7139632 C20.7402917,35.8099789 33.2077292,33.034 45.6248542,33.034 C48.4725417,33.034 51.3101667,33.1848684 54.1176042,33.4664895 C54.7616042,29.8959368 57.5388542,26.8785684 62.7210417,26.8785684 C62.7612917,26.8785684 62.8116042,26.8785684 62.8518542,26.8785684 C64.2606042,26.8785684 65.7196667,27.1099 67.1887917,27.4518684 C63.7373542,16.1266789 90.6344167,9.50858421 98.6944792,9.07609474 C100.646604,8.96545789 102.749667,8.88499474 104.903042,8.88499474 C112.258729,8.88499474 120.348979,9.82037895 126.034292,13.9038842 C128.922229,15.9657526 130.773729,18.5003421 131.810167,21.3064947 C134.627667,17.2732789 139.598542,14.8090947 144.770667,14.8090947 C146.481292,14.8090947 148.222104,15.0907158 149.912604,15.6640158 C150.325167,13.1897737 151.331417,10.7356474 152.609354,8.9554 C156.111104,4.05720526 162.037917,0.466536842 168.105604,0.466536842 C169.886667,0.466536842 171.687854,0.768273684 173.438729,1.45221053 C180.039729,4.00691579 182.967917,9.7198 182.827042,16.3781263 C188.280917,13.3205263 194.841667,11.6408579 201.080417,11.6408579 C204.481542,11.6408579 207.792104,12.1437526 210.780667,13.1897737 C214.745292,14.5878211 217.462167,16.8609053 219.072167,19.5664789 C234.538229,16.4284158 245.476167,15.5533789 256.665667,15.5533789 C260.801354,15.5533789 264.977292,15.6740737 269.424917,15.835 C281.077292,16.2674895 290.455542,17.2330474 305.307792,21.4774789 C320.129854,25.7118526 319.033042,38.3848 306.998292,41.2613579 L309.222104,41.4323421 C318.378979,42.3274947 338.584479,44.9827789 340.788167,56.0062316 C343.102542,67.5929263 311.858479,70.6203526 303.244979,71.8273 C293.796292,73.1549421 284.528729,73.9998053 275.281292,73.9998053 C268.680292,73.9998053 262.089354,73.5673158 255.448104,72.5715842 C253.898479,74.6435105 252.087229,76.3935842 250.265917,77.6307053 C246.432104,80.1954684 242.155542,81.4024158 237.889042,81.4024158 C234.508042,81.4024158 231.137104,80.6380158 228.017729,79.1997368 C222.785229,82.2573368 216.697417,84.1381632 211.957979,84.7215211 C209.241104,85.0534316 206.403479,85.2344737 203.505479,85.2344737 C195.878104,85.2344737 187.888479,84.0074105 180.784354,81.2414895 C172.663917,87.7992368 160.075729,89.7605263 148.493792,89.7605263" id="Fill-16" fill="#FFFFFF" fill-rule="nonzero" mask="url(#mask-11)"></path>
                            </g>
                        </g>
                        <g id="Group-25" transform="translate(225.000000, 249.000000)">
                            <g id="Fill-23-Clipped">
                                <mask id="mask-13" fill="white">
                                    <use xlink:href="#path-12"></use>
                                </mask>
                                <g id="path-16"></g>
                                <path d="M78.4971702,76.9550438 C67.5804238,76.9550438 54.5306357,73.07367 49.52,63.7846532 C42.9598906,66.200404 36.0979357,67.6458114 29.9503486,67.6458114 C28.8335202,67.6458114 27.7368148,67.5952727 26.6702939,67.504303 C17.6652358,66.6653603 4.90723172,61.7529966 1.2045933,52.6560269 C-3.51425837,41.1331987 9.61602187,29.5598316 20.1101846,27.8111919 C21.8407656,27.5180673 23.561285,27.3765589 25.2415584,27.3765589 C31.358961,27.3765589 37.0839645,29.2161684 42.1750923,32.3192458 L42.2656459,31.8846128 C43.7145044,27.295697 47.8699111,24.3442357 52.397594,23.1919529 C53.9873137,22.7977508 55.6675871,22.595596 57.3579221,22.595596 C57.6597676,22.595596 57.9817362,22.6057037 58.2835817,22.6158114 C56.8749692,19.2398249 56.8548462,15.4089899 59.2494874,11.7095556 C63.7067396,4.87672054 71.9169378,1.29857912 79.7649214,0.358558923 C80.8515653,0.227158249 81.9281476,0.166511785 82.9946685,0.166511785 C90.7118524,0.166511785 97.8253452,3.52228283 101.467614,10.8200741 C102.30272,12.4676364 102.775612,14.2769226 103.037211,16.1266397 C103.268626,16.116532 103.500041,16.116532 103.741517,16.116532 C109.184798,16.116532 114.135065,18.2391582 116.710813,23.7478788 C117.48555,25.3651178 117.908134,27.1137576 118.14961,28.9028283 C123.160246,25.0315623 129.016049,22.3429024 135.566097,21.5544983 C137.920492,21.2714815 140.445933,21.0794343 142.991497,21.0794343 C150.748927,21.0794343 158.838387,22.8078586 163.8289,28.8017508 C167.551661,33.3098047 167.672399,37.9492593 165.680219,42.0732189 C166.364402,42.0428956 167.058647,42.0226801 167.752891,42.0226801 C171.536022,42.0226801 175.299029,42.6089293 177.945208,44.8629562 C184.294026,50.321138 175.792044,57.5178519 171.053069,59.8123098 C167.511415,61.5104108 162.963609,62.5110774 158.415803,62.5110774 C155.799809,62.5110774 153.173753,62.1775219 150.758988,61.4497643 C149.17933,65.5332929 145.959645,68.5757239 141.452085,70.5366263 C137.397293,72.2953737 133.422994,73.0938855 129.599617,73.0938855 C122.224525,73.0938855 115.422939,70.1222088 109.738182,65.2704916 C101.618537,71.9517104 89.906931,76.156532 82.0589474,76.8135354 C80.9119344,76.9045051 79.7146138,76.9550438 78.4971702,76.9550438" id="Fill-23" fill="#FFFFFF" fill-rule="nonzero" mask="url(#mask-13)"></path>
                            </g>
                        </g>
                        <g id="Group-28" transform="translate(1177.000000, 23.000000)">
                            <g id="Fill-26-Clipped">
                                <mask id="mask-15" fill="white">
                                    <use xlink:href="#path-14"></use>
                                </mask>
                                <g id="path-18"></g>
                                <path d="M185.551125,111.833767 C174.584113,111.833767 163.096769,108.339844 155.481901,100.693142 C143.994557,105.654514 129.865524,107.201823 118.98857,107.201823 C118.548288,107.201823 118.118013,107.19184 117.687738,107.19184 C108.872102,107.111979 93.1220327,105.175347 87.5284566,97.1393229 C86.2876633,97.4388021 85.0668828,97.7382812 83.8761215,98.0078125 C74.5001273,100.19401 64.6238131,102.210503 54.8775822,102.210503 C53.5867569,102.210503 52.2959316,102.180556 51.0051064,102.100694 C37.6565724,101.312066 22.687002,99.2256944 10.7593764,92.8068576 C0.742972727,87.4262153 -3.70987407,77.6032986 5.48600505,68.6888021 C15.7925943,58.7361111 28.9910323,55.1423611 42.5597071,55.1423611 C46.7724003,55.1423611 51.0151128,55.4917535 55.2177997,56.1006944 L55.277838,55.5915799 C56.058337,51.0993924 60.3610879,47.4756944 64.8339475,47.4756944 C65.754536,47.4756944 66.6751246,47.625434 67.5757003,47.9548611 C68.7664616,48.3940972 69.8471525,49.0529514 70.8177731,49.8515625 C73.8997434,36.3650174 100.786933,27.2309028 111.924053,26.3224826 C113.845281,26.1627604 115.906599,26.062934 118.037962,26.062934 C126.823579,26.062934 136.709899,27.859809 141.783143,35.1371528 C142.753763,36.5247396 143.534262,37.9322917 144.144653,39.3498264 C146.806354,37.2534722 150.138485,36.0954861 153.450602,36.0954861 C155.922182,36.0954861 158.373749,36.734375 160.525125,38.1119792 C159.864703,35.4166667 160.044818,32.4717882 161.355656,29.7465278 C166.088682,19.9835069 178.806813,16.4596354 188.903268,16.4097222 C188.993325,16.4097222 189.083383,16.4097222 189.163434,16.4097222 C195.517496,16.4097222 202.972262,17.8072917 208.325685,21.6705729 C208.685915,19.6740451 209.476421,17.7074653 210.747233,15.9205729 C216.460886,7.85460069 226.467283,2.35416667 236.233527,0.956597222 C238.204787,0.677083333 240.246092,0.517361111 242.287397,0.517361111 C249.782189,0.517361111 257.317006,2.67361111 262,8.89279514 L262,103.118924 C256.226309,105.993924 250.032349,107.87066 243.578223,108.868924 C240.936534,109.278212 238.08471,109.49783 235.132823,109.49783 C226.857533,109.49783 217.831762,107.760851 210.707207,103.608073 C203.42255,108.958767 193.656306,111.813802 185.691214,111.833767 C185.641182,111.833767 185.601157,111.833767 185.551125,111.833767" id="Fill-26" fill="#FFFFFF" fill-rule="nonzero" mask="url(#mask-15)"></path>
                            </g>
                        </g>
                        <g id="Group-31" transform="translate(0.000000, 31.000000)">
                            <g id="Fill-29-Clipped">
                                <mask id="mask-17" fill="white">
                                    <use xlink:href="#path-16"></use>
                                </mask>
                                <g id="path-20"></g>
                                <path d="M0,95.0792727 L0,0.346036364 C0.201428571,0.617018182 0.402857143,0.898036364 0.604285714,1.17905455 C3.57535714,5.59505455 4.89471429,11.0749091 4.48178571,16.2837818 C4.68321429,16.2737455 4.87457143,16.2737455 5.076,16.2737455 C6.74785714,16.2737455 8.41971429,16.5648 10.0714286,16.9963636 C11.3102143,17.3476364 12.5389286,17.7089455 13.7273571,18.3312 C18.1386429,20.6194909 21.2607857,24.3931636 23.0736429,28.7489455 C29.1467143,19.7864727 42.3302143,15.5912727 56.4201429,15.5912727 C73.3300714,15.5912727 91.5392143,21.6331636 100.3215,32.7735273 L101.530071,32.8036364 C111.118071,32.9541818 122.770714,33.2954182 131.13,38.6749091 C145.340786,47.7979636 142.651714,63.9866182 129.548786,72.4372364 C115.338,81.5803636 97.6223571,85.6752 81.1354286,88.4050909 C68.4857143,90.4926545 55.4532857,91.9780364 42.5115,91.9780364 C31.6645714,91.9780364 20.8780714,90.9342545 10.434,88.3448727 L10.0714286,88.6158545 C8.85278571,89.5994182 7.614,90.5227636 6.49607143,91.2955636 C4.39114286,92.7106909 2.22578571,93.9652364 0,95.0792727" id="Fill-29" fill="#FFFFFF" fill-rule="nonzero" mask="url(#mask-17)"></path>
                            </g>
                        </g>
                        <g id="Group-34" transform="translate(1291.000000, 342.000000)">
                            <g id="Fill-32-Clipped">
                                <mask id="mask-19" fill="white">
                                    <use xlink:href="#path-18"></use>
                                </mask>
                                <g id="path-22"></g>
                                <path d="M64.1842581,69.442 C55.3013935,69.442 44.8144,67.8406 37.4955613,62.5468 C36.2824387,64.8826 34.2371742,66.7288 31.5703097,67.4428 C30.6579613,67.6774 29.7355871,67.7998 28.8232387,67.7998 C26.2365806,67.7998 23.730129,66.8818 21.765071,65.3008 L21.6347355,65.26 C20.5419226,65.5252 19.4390839,65.668 18.3663226,65.668 C16.9226065,65.668 15.4989419,65.4028 14.1454581,64.7908 C4.93174194,60.6496 0.440180645,49.7866 0.209587097,40.0048 C-0.241574194,21.4918 11.5387484,6.9364 28.8432903,3.9376 C30.6278839,2.8054 32.5027097,1.8772 34.558,1.255 C36.7235742,0.6022 39.0495613,0.2554 41.3655226,0.2554 C46.4285548,0.2554 51.4815613,1.9384 54.9103871,5.9266 C55.8327613,7.018 56.5846968,8.2012 57.1762194,9.4354 C60.404529,8.395 63.823329,7.8646 67.2321032,7.8646 C73.0570968,7.8646 78.8720645,9.4048 83.6744258,12.577 C87.6446452,15.2086 91.3541935,18.799 92.6675742,23.3686 C96.0161935,23.7256 99.2745806,25.0618 102.162013,27.6322 C103.064335,28.4278 103.846348,29.4682 104.488,30.6106 C106.031974,29.5396 107.816568,28.8868 109.681368,28.8868 C110.102452,28.8868 110.533561,28.9174 110.974697,28.9888 C110.673923,27.1732 111.245394,25.2046 113.090142,23.4094 C116.208168,20.38 121.211045,19.1662 125.732684,19.1662 C126.955832,19.1662 128.138877,19.258 129.241716,19.4212 C134.75591,20.2474 142.205084,24.2866 141.082194,31.1716 C142.90689,30.121 144.962181,29.509 147.107703,29.509 C147.408477,29.509 147.699226,29.5192 148,29.5396 L148,57.5896 C144.2704,61.8226 138.696052,64.7806 133.3924,65.5762 C131.998813,65.7802 130.424761,65.8924 128.770503,65.8924 C123.617239,65.8924 117.601755,64.7908 113.38089,61.8736 C111.275471,64.1686 108.107316,65.3926 105.089548,65.7394 C104.066916,65.8516 102.994155,65.9128 101.871265,65.9128 C97.0889548,65.9128 91.5948129,64.8112 87.3639226,62.2714 L86.1808774,63.1588 C80.7168129,66.9532 74.6612258,68.983 68.0441935,69.34 C66.8110194,69.4012 65.5076645,69.442 64.1842581,69.442" id="Fill-32" fill="#FFFFFF" fill-rule="nonzero" mask="url(#mask-19)"></path>
                            </g>
                        </g>
                        <g id="Group-37" transform="translate(0.000000, 371.000000)">
                            <g id="Fill-35-Clipped">
                                <mask id="mask-21" fill="white">
                                    <use xlink:href="#path-20"></use>
                                </mask>
                                <g id="path-24"></g>
                                <path d="M69.0285556,29.5131923 C65.6413333,29.5131923 62.2642222,29.3814423 58.9073333,29.0571346 C53.0226667,28.5098654 47.0267778,27.6686923 41.3746667,25.9255385 C38.4727778,25.0438269 35.1361111,24.0911731 32.0724444,22.7432692 L31.3545556,24.0810385 L30.3333333,25.1553077 C28.028,27.5369423 24.6407778,28.3578462 21.3445556,28.3781154 C21.2737778,28.3781154 21.203,28.3781154 21.1221111,28.3781154 C15.379,28.3781154 8.69555556,26.8781923 3.11422222,24.1114423 C2.33566667,25.7937885 1.274,27.3747885 0,28.8037692 L0,0.933576923 C0.353888889,0.963980769 0.707777778,1.00451923 1.06166667,1.07546154 C4.28711111,1.62273077 8.15966667,3.19359615 11.193,5.51442308 C11.2031111,5.51442308 11.2132222,5.52455769 11.2233333,5.52455769 C11.6581111,5.52455769 16.0362222,3.02130769 21.6276667,2.09905769 C22.6286667,1.93690385 23.9734444,1.85582692 25.571,1.85582692 C26.9764444,1.85582692 28.5841111,1.91663462 30.3333333,2.03825 C45.227,3.06184615 70.4542222,8.46359615 71.5057778,17.3111154 C72.709,17.2401731 73.9122222,17.1895 75.1053333,17.1895 C80.9697778,17.1895 86.6016667,18.2739038 90.2517778,22.32775 C91.3033333,23.5033654 90.8685556,25.6823077 89.6046667,26.5336154 C85.6714444,29.1686154 81.1012222,29.1078077 76.5006667,29.3206346 C74.0234444,29.44225 71.526,29.5131923 69.0285556,29.5131923" id="Fill-35" fill="#FFFFFF" fill-rule="nonzero" mask="url(#mask-21)"></path>
                            </g>
                        </g>
                    </g>
                </g>
            </g>
        </g>
    </g>
</svg>