<?xml version="1.0" encoding="UTF-8"?>
<svg width="341px" height="90px" viewBox="0 0 341 90" version="1.1" xmlns="http://www.w3.org/2000/svg" xmlns:xlink="http://www.w3.org/1999/xlink">
    <!-- Generator: Sketch 60.1 (88133) - https://sketch.com -->
    <title>Fill-16 Clipped</title>
    <desc>Created with Sketch.</desc>
    <defs>
        <path d="M148.493792,89.7605263 C142.315417,89.7605263 136.428854,89.2073421 131.659229,88.4932316 C126.225479,87.6785421 109.461354,83.3134158 108.183417,76.0113842 C94.1462292,79.9037895 79.7669167,82.7099421 65.8102292,82.7099421 C65.2266042,82.7099421 64.6530417,82.7099421 64.0794792,82.6998842 C53.1012917,82.5087842 42.3646042,80.8492316 31.6681667,78.4453947 C24.0508542,76.7355526 15.6386042,74.7843211 9.17847917,70.1778053 C-2.51414583,61.8498684 -3.03739583,49.0260526 10.1142917,41.7139632 C20.7402917,35.8099789 33.2077292,33.034 45.6248542,33.034 C48.4725417,33.034 51.3101667,33.1848684 54.1176042,33.4664895 C54.7616042,29.8959368 57.5388542,26.8785684 62.7210417,26.8785684 C62.7612917,26.8785684 62.8116042,26.8785684 62.8518542,26.8785684 C64.2606042,26.8785684 65.7196667,27.1099 67.1887917,27.4518684 C63.7373542,16.1266789 90.6344167,9.50858421 98.6944792,9.07609474 C100.646604,8.96545789 102.749667,8.88499474 104.903042,8.88499474 C112.258729,8.88499474 120.348979,9.82037895 126.034292,13.9038842 C128.922229,15.9657526 130.773729,18.5003421 131.810167,21.3064947 C134.627667,17.2732789 139.598542,14.8090947 144.770667,14.8090947 C146.481292,14.8090947 148.222104,15.0907158 149.912604,15.6640158 C150.325167,13.1897737 151.331417,10.7356474 152.609354,8.9554 C156.111104,4.05720526 162.037917,0.466536842 168.105604,0.466536842 C169.886667,0.466536842 171.687854,0.768273684 173.438729,1.45221053 C180.039729,4.00691579 182.967917,9.7198 182.827042,16.3781263 C188.280917,13.3205263 194.841667,11.6408579 201.080417,11.6408579 C204.481542,11.6408579 207.792104,12.1437526 210.780667,13.1897737 C214.745292,14.5878211 217.462167,16.8609053 219.072167,19.5664789 C234.538229,16.4284158 245.476167,15.5533789 256.665667,15.5533789 C260.801354,15.5533789 264.977292,15.6740737 269.424917,15.835 C281.077292,16.2674895 290.455542,17.2330474 305.307792,21.4774789 C320.129854,25.7118526 319.033042,38.3848 306.998292,41.2613579 L309.222104,41.4323421 C318.378979,42.3274947 338.584479,44.9827789 340.788167,56.0062316 C343.102542,67.5929263 311.858479,70.6203526 303.244979,71.8273 C293.796292,73.1549421 284.528729,73.9998053 275.281292,73.9998053 C268.680292,73.9998053 262.089354,73.5673158 255.448104,72.5715842 C253.898479,74.6435105 252.087229,76.3935842 250.265917,77.6307053 C246.432104,80.1954684 242.155542,81.4024158 237.889042,81.4024158 C234.508042,81.4024158 231.137104,80.6380158 228.017729,79.1997368 C222.785229,82.2573368 216.697417,84.1381632 211.957979,84.7215211 C209.241104,85.0534316 206.403479,85.2344737 203.505479,85.2344737 C195.878104,85.2344737 187.888479,84.0074105 180.784354,81.2414895 C172.663917,87.7992368 160.075729,89.7605263 148.493792,89.7605263" id="path-1"></path>
    </defs>
    <g id="Page-1" stroke="none" stroke-width="1" fill="none" fill-rule="evenodd">
        <g id="Desktop-HD-Copy" transform="translate(-387.000000, -78.000000)">
            <g id="Group-2" transform="translate(0.000000, 71.000000)">
                <g id="clouds" transform="translate(0.000000, -71.000000)">
                    <g id="Group-18" transform="translate(387.000000, 78.000000)">
                        <g id="Fill-16-Clipped">
                            <mask id="mask-2" fill="white">
                                <use xlink:href="#path-1"></use>
                            </mask>
                            <g id="path-12"></g>
                            <path d="M148.493792,89.7605263 C142.315417,89.7605263 136.428854,89.2073421 131.659229,88.4932316 C126.225479,87.6785421 109.461354,83.3134158 108.183417,76.0113842 C94.1462292,79.9037895 79.7669167,82.7099421 65.8102292,82.7099421 C65.2266042,82.7099421 64.6530417,82.7099421 64.0794792,82.6998842 C53.1012917,82.5087842 42.3646042,80.8492316 31.6681667,78.4453947 C24.0508542,76.7355526 15.6386042,74.7843211 9.17847917,70.1778053 C-2.51414583,61.8498684 -3.03739583,49.0260526 10.1142917,41.7139632 C20.7402917,35.8099789 33.2077292,33.034 45.6248542,33.034 C48.4725417,33.034 51.3101667,33.1848684 54.1176042,33.4664895 C54.7616042,29.8959368 57.5388542,26.8785684 62.7210417,26.8785684 C62.7612917,26.8785684 62.8116042,26.8785684 62.8518542,26.8785684 C64.2606042,26.8785684 65.7196667,27.1099 67.1887917,27.4518684 C63.7373542,16.1266789 90.6344167,9.50858421 98.6944792,9.07609474 C100.646604,8.96545789 102.749667,8.88499474 104.903042,8.88499474 C112.258729,8.88499474 120.348979,9.82037895 126.034292,13.9038842 C128.922229,15.9657526 130.773729,18.5003421 131.810167,21.3064947 C134.627667,17.2732789 139.598542,14.8090947 144.770667,14.8090947 C146.481292,14.8090947 148.222104,15.0907158 149.912604,15.6640158 C150.325167,13.1897737 151.331417,10.7356474 152.609354,8.9554 C156.111104,4.05720526 162.037917,0.466536842 168.105604,0.466536842 C169.886667,0.466536842 171.687854,0.768273684 173.438729,1.45221053 C180.039729,4.00691579 182.967917,9.7198 182.827042,16.3781263 C188.280917,13.3205263 194.841667,11.6408579 201.080417,11.6408579 C204.481542,11.6408579 207.792104,12.1437526 210.780667,13.1897737 C214.745292,14.5878211 217.462167,16.8609053 219.072167,19.5664789 C234.538229,16.4284158 245.476167,15.5533789 256.665667,15.5533789 C260.801354,15.5533789 264.977292,15.6740737 269.424917,15.835 C281.077292,16.2674895 290.455542,17.2330474 305.307792,21.4774789 C320.129854,25.7118526 319.033042,38.3848 306.998292,41.2613579 L309.222104,41.4323421 C318.378979,42.3274947 338.584479,44.9827789 340.788167,56.0062316 C343.102542,67.5929263 311.858479,70.6203526 303.244979,71.8273 C293.796292,73.1549421 284.528729,73.9998053 275.281292,73.9998053 C268.680292,73.9998053 262.089354,73.5673158 255.448104,72.5715842 C253.898479,74.6435105 252.087229,76.3935842 250.265917,77.6307053 C246.432104,80.1954684 242.155542,81.4024158 237.889042,81.4024158 C234.508042,81.4024158 231.137104,80.6380158 228.017729,79.1997368 C222.785229,82.2573368 216.697417,84.1381632 211.957979,84.7215211 C209.241104,85.0534316 206.403479,85.2344737 203.505479,85.2344737 C195.878104,85.2344737 187.888479,84.0074105 180.784354,81.2414895 C172.663917,87.7992368 160.075729,89.7605263 148.493792,89.7605263" id="Fill-16" fill="#FFFFFF" fill-rule="nonzero" mask="url(#mask-2)"></path>
                        </g>
                    </g>
                </g>
            </g>
        </g>
    </g>
</svg>