<?xml version="1.0" encoding="UTF-8"?>
<svg width="74px" height="49px" viewBox="0 0 74 49" version="1.1" xmlns="http://www.w3.org/2000/svg" xmlns:xlink="http://www.w3.org/1999/xlink">
    <!-- Generator: Sketch 60.1 (88133) - https://sketch.com -->
    <title>“</title>
    <desc>Created with Sketch.</desc>
    <g id="Page-1" stroke="none" stroke-width="1" fill="none" fill-rule="evenodd">
        <g id="about-me" transform="translate(-530.000000, -968.000000)" fill="#F2E45B" fill-rule="nonzero">
            <path d="M546.694079,1017 C550.191886,1017 553.117325,1015.90583 555.470395,1013.71748 C557.823465,1011.52913 559,1008.91262 559,1005.86796 C559,1003.07702 558.030154,1000.71424 556.090461,998.779612 C554.150768,996.844984 551.877193,995.87767 549.269737,995.87767 C548.125,995.87767 546.85307,996.115534 545.453947,996.591262 C544.054825,997.06699 542.941886,997.304854 542.115132,997.304854 C541.288377,997.304854 540.588816,996.860841 540.016447,995.972816 C539.380482,995.14822 539.0625,993.62589 539.0625,991.405825 C539.0625,987.66343 540.270833,984.206472 542.6875,981.034951 C545.104167,977.86343 549.110746,974.81877 554.707237,971.900971 L554.707237,971.900971 L554.707237,968 C546.694079,970.600647 540.572917,974.644337 536.34375,980.131068 C532.114583,985.617799 530,991.532686 530,997.875728 C530,1003.26731 531.717105,1007.80259 535.151316,1011.48155 C538.585526,1015.16052 542.433114,1017 546.694079,1017 Z M591.354098,1017 C594.903825,1017 597.898907,1015.8538 600.339344,1013.5614 C602.779781,1011.26901 604,1008.5627 604,1005.4425 C604,1002.70435 603.033333,1000.39604 601.1,998.517544 C599.166667,996.639051 596.900546,995.699805 594.301639,995.699805 C592.907104,995.699805 591.512568,995.954516 590.118033,996.463938 C588.723497,996.973359 587.677596,997.22807 586.980328,997.22807 C586.219672,997.22807 585.49071,996.782326 584.793443,995.890838 C584.096175,994.99935 583.747541,993.662118 583.747541,991.879142 C583.747541,987.931124 584.761749,984.492528 586.790164,981.563353 C588.818579,978.634178 593.03388,975.322937 599.436066,971.62963 L599.436066,971.62963 L599.436066,968 C591.639344,970.292398 585.617486,974.192658 581.370492,979.70078 C577.123497,985.208902 575,991.306043 575,997.992203 C575,1003.40481 576.679781,1007.92593 580.039344,1011.55556 C583.398907,1015.18519 587.170492,1017 591.354098,1017 Z" id="“"></path>
        </g>
    </g>
</svg>